<svg xmlns="http://www.w3.org/2000/svg" width="89" height="88" viewBox="0 0 89 88" fill="none">
  <path d="M50.2791 50.4871C50.105 50.4871 49.9351 50.4342 49.7917 50.3355C49.6483 50.2367 49.5382 50.0968 49.4761 49.9342L44.994 38.2021L40.5118 49.9342C40.4716 50.0396 40.4109 50.1361 40.3334 50.218C40.2558 50.3 40.1629 50.366 40.0599 50.412C39.9568 50.4581 39.8458 50.4834 39.7329 50.4866C39.6201 50.4897 39.5078 50.4706 39.4024 50.4304C39.2969 50.3901 39.2005 50.3295 39.1185 50.2519C39.0365 50.1744 38.9706 50.0814 38.9245 49.9784C38.8784 49.8754 38.8531 49.7643 38.8499 49.6515C38.8468 49.5387 38.8659 49.4263 38.9062 49.3209L44.1912 35.4877C44.2534 35.3253 44.3635 35.1855 44.5068 35.0869C44.6501 34.9883 44.82 34.9355 44.994 34.9355C45.168 34.9355 45.3378 34.9883 45.4812 35.0869C45.6245 35.1855 45.7346 35.3253 45.7968 35.4877L51.0818 49.3209C51.1315 49.451 51.1489 49.5913 51.1324 49.7296C51.1158 49.868 51.0659 50.0002 50.987 50.1149C50.908 50.2297 50.8023 50.3235 50.679 50.3884C50.5557 50.4532 50.4184 50.4871 50.2791 50.4871Z" fill="#FFC221"/>
  <path d="M45.5121 46.7045H41.4189C41.191 46.7045 40.9724 46.6139 40.8113 46.4528C40.6501 46.2916 40.5596 46.073 40.5596 45.8451C40.5596 45.6172 40.6501 45.3986 40.8113 45.2374C40.9724 45.0763 41.191 44.9857 41.4189 44.9857H45.5121C45.7401 44.9857 45.9587 45.0763 46.1198 45.2374C46.281 45.3986 46.3715 45.6172 46.3715 45.8451C46.3715 46.073 46.281 46.2916 46.1198 46.4528C45.9587 46.6139 45.7401 46.7045 45.5121 46.7045Z" fill="#FFC221"/>
  <path d="M65.4304 22.8578C65.2025 22.8578 64.9839 22.7673 64.8227 22.6061C64.6616 22.445 64.571 22.2264 64.571 21.9985V18.2499C64.571 18.022 64.6616 17.8034 64.8227 17.6422C64.9839 17.481 65.2025 17.3905 65.4304 17.3905C65.6583 17.3905 65.8769 17.481 66.0381 17.6422C66.1993 17.8034 66.2898 18.022 66.2898 18.2499V21.9985C66.2898 22.2264 66.1993 22.445 66.0381 22.6061C65.8769 22.7673 65.6583 22.8578 65.4304 22.8578Z" fill="#FFC221"/>
  <path d="M72.1923 23.3047H58.6687C58.4408 23.3047 58.2222 23.2141 58.061 23.053C57.8999 22.8918 57.8093 22.6732 57.8093 22.4453C57.8093 22.2174 57.8999 21.9988 58.061 21.8376C58.2222 21.6765 58.4408 21.5859 58.6687 21.5859H72.1923C72.4203 21.5859 72.6388 21.6765 72.8 21.8376C72.9612 21.9988 73.0517 22.2174 73.0517 22.4453C73.0517 22.6732 72.9612 22.8918 72.8 23.053C72.6388 23.2141 72.4203 23.3047 72.1923 23.3047Z" fill="#FFC221"/>
  <path d="M60.2474 33.7189C60.0351 33.7182 59.8307 33.639 59.6734 33.4966C59.516 33.3541 59.4169 33.1586 59.3952 32.9475C59.3734 32.7364 59.4305 32.5247 59.5554 32.3531C59.6803 32.1816 59.8643 32.0623 60.0719 32.0182C63.6053 31.2773 66.1071 29.4392 67.5079 26.555C68.5568 24.3951 68.569 22.4646 68.569 22.4453C68.569 22.2174 68.6596 21.9988 68.8207 21.8376C68.9819 21.6765 69.2005 21.5859 69.4284 21.5859C69.6563 21.5859 69.8749 21.6765 70.0361 21.8376C70.1972 21.9988 70.2878 22.2174 70.2878 22.4453C70.2878 22.54 70.2739 24.7942 69.0539 27.3059C67.9228 29.6348 65.5078 32.6346 60.4244 33.7004C60.3662 33.7127 60.3069 33.7189 60.2474 33.7189Z" fill="#FFC221"/>
  <path d="M70.4658 33.719C70.4141 33.719 70.3615 33.7144 70.3087 33.7046C64.445 32.6216 62.1445 27.3985 62.0494 27.1768C61.9597 26.9673 61.9568 26.7307 62.0414 26.5191C62.1261 26.3075 62.2913 26.1382 62.5008 26.0484C62.71 25.9587 62.9462 25.9557 63.1576 26.04C63.369 26.1242 63.5383 26.2889 63.6285 26.4978C63.6484 26.5437 65.6812 31.1022 70.621 32.0145C70.8314 32.0538 71.0196 32.1702 71.1487 32.3409C71.2778 32.5115 71.3387 32.7243 71.3193 32.9374C71.2998 33.1506 71.2016 33.3488 71.0438 33.4933C70.8859 33.6379 70.6799 33.7184 70.4658 33.719Z" fill="#FFC221"/>
  <path d="M79.9993 25.5548C79.9993 22.7242 79.1831 19.9764 77.6392 17.6086C77.5146 17.4177 77.3194 17.2841 77.0964 17.2372C76.8733 17.1902 76.6408 17.2338 76.4499 17.3583C76.259 17.4828 76.1253 17.6781 76.0784 17.9011C76.0314 18.1241 76.075 18.3567 76.1995 18.5476C77.5598 20.6313 78.283 23.0664 78.2806 25.5548C78.2806 32.6403 72.5161 38.4048 65.4305 38.4048H53.4398C52.966 38.4048 52.5805 38.0193 52.5805 37.5455V25.5548C52.5805 18.4692 58.345 12.7047 65.4305 12.7047C67.8825 12.7029 70.2834 13.4051 72.3478 14.728C72.5398 14.8509 72.7727 14.8925 72.9953 14.8437C73.2179 14.7949 73.4121 14.6596 73.5349 14.4676C73.6578 14.2757 73.6995 14.0428 73.6506 13.8201C73.6018 13.5975 73.4665 13.4034 73.2746 13.2805C70.9336 11.7803 68.211 10.9838 65.4305 10.9858C63.1086 10.9841 60.8204 11.5411 58.759 12.6097C54.2696 10.5668 49.4733 9.52966 44.5001 9.52966C25.5297 9.52966 10.0907 24.9336 10.0313 43.8902C10.0266 43.9265 10.0203 43.9622 10.0203 43.9997C10.0203 44.0372 10.0266 44.0731 10.0313 44.1094C10.0907 63.0663 25.5297 78.4703 44.5001 78.4703C63.4705 78.4703 78.9095 63.0663 78.9689 44.1097C78.9736 44.0734 78.9799 44.0377 78.9799 44.0001C78.9799 43.9638 78.9736 43.9294 78.9693 43.8944C78.959 40.4519 78.4425 37.0568 77.4341 33.7981C79.0504 31.4521 79.9993 28.6128 79.9993 25.5548ZM59.3333 40.1234H64.4283C64.5009 41.1218 64.5457 42.1306 64.5619 43.1407H59.5629V42.711C59.5629 41.8411 59.4857 40.9742 59.3333 40.1234ZM53.44 40.1234H57.5827C57.7566 40.975 57.8442 41.8419 57.8443 42.711V54.7017C57.8443 55.1755 57.4588 55.5611 56.9849 55.5611H55.2992C55.0713 55.5611 54.8527 55.6516 54.6915 55.8128C54.5303 55.9739 54.4398 56.1925 54.4398 56.4204C54.4398 56.6483 54.5303 56.8669 54.6915 57.0281C54.8527 57.1893 55.0713 57.2798 55.2992 57.2798H56.9849C58.4065 57.2798 59.5631 56.1233 59.5631 54.7017V44.8594H64.5645C64.4383 52.8081 62.5673 60.0599 59.5557 65.6336C55.1548 64.2896 50.3153 63.5403 45.3597 63.4627V57.2796H49.5139C49.7418 57.2796 49.9604 57.1891 50.1215 57.0279C50.2827 56.8668 50.3732 56.6482 50.3732 56.4203C50.3732 56.1923 50.2827 55.9738 50.1215 55.8126C49.9604 55.6514 49.7418 55.5609 49.5139 55.5609H44.9942C37.9087 55.5609 32.1442 49.7964 32.1442 42.7108C32.1442 35.6253 37.9087 29.8608 44.9942 29.8608C47.0363 29.8608 49.0588 30.3506 50.8621 31.2772V37.5451C50.8619 38.967 52.0184 40.1234 53.44 40.1234ZM50.8619 25.5548V29.375C49.1247 28.6129 47.2559 28.1962 45.3595 28.148V24.5373C47.2215 24.5082 49.0808 24.3832 50.93 24.1628C50.8852 24.6254 50.8625 25.09 50.8619 25.5548ZM43.6407 22.8182C38.9941 22.7431 34.4595 22.0614 30.3232 20.8382C33.7675 15.2246 38.4527 11.6391 43.6407 11.2806V22.8182ZM43.6407 24.5373V28.2073C36.24 28.8926 30.4253 35.1342 30.4253 42.711C30.4253 42.855 30.432 42.9975 30.4361 43.1407H24.4358C24.5619 35.192 26.433 27.9402 29.4445 22.3665C33.8456 23.7106 38.6851 24.4596 43.6407 24.5373ZM30.5849 44.8594C31.5617 51.4388 36.9529 56.5954 43.6407 57.2147V63.4628C38.6851 63.5405 33.8456 64.2897 29.4447 65.6338C26.4331 60.0599 24.5621 52.8083 24.4359 44.8596H30.5849V44.8594ZM43.6407 65.1819V76.7196C38.4527 76.361 33.7675 72.7757 30.3232 67.1619C34.4595 65.9387 38.9941 65.2569 43.6407 65.1819ZM45.3595 65.1819C50.0061 65.257 54.5407 65.9387 58.677 67.1619C55.2327 72.7755 50.5475 76.361 45.3595 76.7196V65.1819ZM51.2106 22.3961C49.2696 22.6459 47.3162 22.7868 45.3595 22.8182V11.2826C48.6285 11.5128 51.8206 13.0505 54.6466 15.7694C52.9443 17.6418 51.7599 19.9259 51.2106 22.3961ZM56.9674 13.7074C56.5911 13.977 56.2277 14.2642 55.8786 14.5682C55.0507 13.7676 54.1918 13.0588 53.308 12.4443C54.5518 12.7923 55.7738 13.2141 56.9674 13.7074ZM28.9705 19.7793C28.8623 19.9537 28.7556 20.1291 28.6507 20.3055C27.0491 19.76 25.5158 19.1313 24.0709 18.4211C27.4479 15.7185 31.3683 13.6689 35.641 12.4668C33.1765 14.1935 30.9168 16.6539 28.9705 19.7793ZM22.6474 19.6275C24.2608 20.4618 25.9844 21.1972 27.7937 21.828C24.6193 27.8063 22.8375 35.2537 22.7168 43.1407H11.76C12.0013 33.8159 16.1605 25.4498 22.6474 19.6275ZM11.76 44.8594H22.7168C22.8375 52.7464 24.6193 60.1938 27.7935 66.1721C25.9842 66.8029 24.2608 67.5383 22.6472 68.3726C16.1605 62.5503 12.0013 54.1842 11.76 44.8594ZM24.0709 69.579C25.5158 68.869 27.049 68.2401 28.6507 67.6946C28.7556 67.8709 28.8623 68.0463 28.9705 68.2207C30.9168 71.3462 33.1765 73.8064 35.6412 75.5329C31.3685 74.3312 27.4479 72.2816 24.0709 69.579ZM60.0297 68.2208C60.1379 68.0464 60.2445 67.8711 60.3496 67.6947C61.9511 68.2403 63.4844 68.869 64.9293 69.5792C61.5523 72.2817 57.6319 74.3314 53.3592 75.5333C55.8237 73.8066 58.0834 71.3464 60.0297 68.2208ZM66.3528 68.3726C64.7392 67.5385 63.0159 66.8029 61.2065 66.1721C64.3807 60.1938 66.1625 52.7466 66.2832 44.8594H77.2402C76.9989 54.1842 72.8397 62.5503 66.3528 68.3726ZM77.2392 43.1407H66.2806C66.265 42.1279 66.2217 41.1157 66.1507 40.1052C70.0835 39.9129 73.6101 38.1525 76.1208 35.439C76.7971 37.9435 77.1718 40.5253 77.2392 43.1407Z" fill="#2AC9BF"/>
</svg>