<svg xmlns="http://www.w3.org/2000/svg" width="89" height="88" viewBox="0 0 89 88" fill="none">
  <path d="M54.0067 56.8865V63.8715C54.0067 64.1632 54.1226 64.443 54.3289 64.6493C54.5352 64.8556 54.815 64.9715 55.1067 64.9715C55.3985 64.9715 55.6783 64.8556 55.8845 64.6493C56.0908 64.443 56.2067 64.1632 56.2067 63.8715V55.814C56.2067 55.781 56.1902 55.748 56.1875 55.715L59.306 54.0347C59.4814 53.9411 59.628 53.8016 59.7303 53.6311C59.8326 53.4606 59.8866 53.2655 59.8866 53.0667C59.8866 52.8679 59.8326 52.6728 59.7303 52.5023C59.628 52.3318 59.4814 52.1923 59.306 52.0987L33.9015 38.423C33.7417 38.3356 33.5625 38.2898 33.3804 38.2898C33.1982 38.2898 33.019 38.3356 32.8592 38.423L7.45473 52.0987C7.2801 52.193 7.13422 52.3327 7.03255 52.5031C6.93088 52.6735 6.8772 52.8683 6.8772 53.0667C6.8772 53.2652 6.93088 53.4599 7.03255 53.6303C7.13422 53.8007 7.2801 53.9405 7.45473 54.0347L17.4895 59.4357V61.4845C17.4895 61.7762 17.6054 62.056 17.8117 62.2623C18.0179 62.4686 18.2977 62.5845 18.5895 62.5845C18.8812 62.5845 19.161 62.4686 19.3673 62.2623C19.5736 62.056 19.6895 61.7762 19.6895 61.4845V58.4787C19.6895 57.2825 24.5212 54.9587 33.379 54.9587C42.2367 54.9587 47.074 57.2852 47.074 58.4787V61.4845C47.074 61.7762 47.1899 62.056 47.3962 62.2623C47.6025 62.4686 47.8822 62.5845 48.174 62.5845C48.4657 62.5845 48.7455 62.4686 48.9518 62.2623C49.1581 62.056 49.274 61.7762 49.274 61.4845V59.433L54.0067 56.8865ZM17.8607 57.1395L10.2982 53.0667L33.379 40.6367L56.4652 53.0667L48.9027 57.1367C45.5945 51.414 21.1607 51.414 17.8607 57.1395Z" fill="#2AC9BF"/>
  <path d="M17.4895 66.935C17.4895 70.6915 25.4838 72.6577 33.3818 72.6577C41.2798 72.6577 49.274 70.6942 49.274 66.9377C49.274 59.422 17.4868 59.4165 17.4895 66.935ZM33.3818 70.4605C24.5213 70.4605 19.6868 68.1312 19.6868 66.935C19.6868 65.7415 24.5213 63.415 33.3818 63.415C42.2423 63.415 47.074 65.7415 47.074 66.935C47.074 68.1312 42.2423 70.4605 33.3818 70.4605Z" fill="#FFC221"/>
  <path d="M81.0228 15.3422H42.6933C42.4015 15.3422 42.1217 15.4581 41.9154 15.6644C41.7092 15.8707 41.5933 16.1505 41.5933 16.4422V36.85C41.5933 37.1417 41.7092 37.4215 41.9154 37.6278C42.1217 37.8341 42.4015 37.95 42.6933 37.95C42.985 37.95 43.2648 37.8341 43.4711 37.6278C43.6774 37.4215 43.7933 37.1417 43.7933 36.85V17.5395H79.92V23.98C79.92 24.2717 80.0359 24.5515 80.2422 24.7578C80.4485 24.9641 80.7283 25.08 81.02 25.08C81.3118 25.08 81.5915 24.9641 81.7978 24.7578C82.0041 24.5515 82.12 24.2717 82.12 23.98V16.4395C82.12 16.1477 82.0041 15.8679 81.7978 15.6617C81.5915 15.4554 81.3118 15.3395 81.02 15.3395L81.0228 15.3422Z" fill="#2AC9BF"/>
  <path d="M80.6075 29.37C80.745 29.425 80.8825 29.4525 81.02 29.4525C81.1575 29.4525 81.3225 29.425 81.4325 29.37C81.57 29.315 81.7075 29.2325 81.79 29.1225C81.8953 29.0209 81.9791 28.8991 82.0363 28.7645C82.0935 28.6298 82.123 28.485 82.123 28.3387C82.123 28.1924 82.0935 28.0476 82.0363 27.913C81.9791 27.7783 81.8953 27.6565 81.79 27.555C81.6359 27.4068 81.4419 27.3071 81.2317 27.268C81.0216 27.2289 80.8046 27.2522 80.6075 27.335C80.4787 27.3913 80.3584 27.4654 80.25 27.555C80.1461 27.6573 80.0636 27.7793 80.0072 27.9139C79.9509 28.0484 79.9219 28.1928 79.9219 28.3387C79.9219 28.4846 79.9509 28.629 80.0072 28.7636C80.0636 28.8981 80.1461 29.0201 80.25 29.1225C80.36 29.2325 80.47 29.315 80.6075 29.37Z" fill="#FFC221"/>
  <path d="M81.0227 31.3115C80.8782 31.3115 80.7352 31.34 80.6017 31.3953C80.4683 31.4505 80.347 31.5316 80.2449 31.6337C80.1427 31.7359 80.0617 31.8571 80.0064 31.9906C79.9511 32.124 79.9227 32.2671 79.9227 32.4115V57.8408H68.5514C68.2597 57.8408 67.9799 57.9567 67.7736 58.163C67.5673 58.3692 67.4514 58.649 67.4514 58.9408V70.4605H52.8847C52.5929 70.4605 52.3131 70.5764 52.1068 70.7827C51.9006 70.989 51.7847 71.2688 51.7847 71.5605C51.7847 71.8523 51.9006 72.132 52.1068 72.3383C52.3131 72.5446 52.5929 72.6605 52.8847 72.6605H68.4057C68.4304 72.6605 68.4524 72.6468 68.4772 72.644C68.5047 72.644 68.5239 72.6578 68.5487 72.6578C69.0189 72.6578 69.4122 72.3608 69.5717 71.9483L81.8009 59.7163C82.0065 59.5105 82.1222 59.2316 82.1227 58.9408V32.4115C82.1227 32.2671 82.0942 32.124 82.0389 31.9906C81.9837 31.8571 81.9026 31.7359 81.8005 31.6337C81.6983 31.5316 81.5771 31.4505 81.4436 31.3953C81.3102 31.34 81.1671 31.3115 81.0227 31.3115ZM78.3689 60.0408L69.6514 68.7583V60.0408H78.3689Z" fill="#2AC9BF"/>
  <path d="M52.0131 26.3284H71.8846C72.1763 26.3284 72.4561 26.2125 72.6624 26.0062C72.8687 25.7999 72.9846 25.5202 72.9846 25.2284C72.9846 24.9367 72.8687 24.6569 72.6624 24.4506C72.4561 24.2443 72.1763 24.1284 71.8846 24.1284H52.0131C51.7213 24.1284 51.4416 24.2443 51.2353 24.4506C51.029 24.6569 50.9131 24.9367 50.9131 25.2284C50.9131 25.5202 51.029 25.7999 51.2353 26.0062C51.4416 26.2125 51.7213 26.3284 52.0131 26.3284ZM52.0131 35.3264H71.8846C72.1763 35.3264 72.4561 35.2105 72.6624 35.0042C72.8687 34.7979 72.9846 34.5182 72.9846 34.2264C72.9846 33.9347 72.8687 33.6549 72.6624 33.4486C72.4561 33.2423 72.1763 33.1264 71.8846 33.1264H52.0131C51.7213 33.1264 51.4416 33.2423 51.2353 33.4486C51.029 33.6549 50.9131 33.9347 50.9131 34.2264C50.9131 34.5182 51.029 34.7979 51.2353 35.0042C51.4416 35.2105 51.7213 35.3264 52.0131 35.3264ZM71.8873 41.4507H61.8581C61.5663 41.4507 61.2866 41.5666 61.0803 41.7729C60.874 41.9791 60.7581 42.2589 60.7581 42.5507C60.7581 42.8424 60.874 43.1222 61.0803 43.3285C61.2866 43.5348 61.5663 43.6507 61.8581 43.6507H71.8873C72.1791 43.6507 72.4589 43.5348 72.6651 43.3285C72.8714 43.1222 72.9873 42.8424 72.9873 42.5507C72.9873 42.2589 72.8714 41.9791 72.6651 41.7729C72.4589 41.5666 72.1791 41.4507 71.8873 41.4507Z" fill="#FFC221"/>
</svg>