<svg xmlns="http://www.w3.org/2000/svg" width="89" height="88" viewBox="0 0 89 88" fill="none">
  <path d="M84.3922 57.6984L83.5329 55.9625C82.6391 54.1234 81.6938 52.2156 80.7313 50.3594C79.8204 48.6406 79.7516 47.1453 80.5251 45.7703C83.5157 40.3906 81.7797 32.3469 78.4969 27.1906C74.4579 20.7281 67.8922 16.2766 60.4844 14.6609V12.2891C60.4844 11.7734 60.0547 11.3438 59.5391 11.3438H54.0563C53.5407 11.3438 53.111 11.7734 53.111 12.2891C53.111 14.2141 51.5469 15.7953 49.6047 15.7953C47.6797 15.7953 46.1157 14.2141 46.1157 12.2891C46.1157 11.7734 45.686 11.3438 45.1704 11.3438H39.6876C39.1719 11.3438 38.7422 11.7734 38.7422 12.2891V16.4656C32.8641 17.5828 32.8813 25.9703 38.7422 27.0875V31.2125H35.0641C33.9985 25.3516 25.5251 25.3516 24.4594 31.2125H19.836C19.3204 31.2125 18.8907 31.625 18.8907 32.1578V36.7641C13.0297 37.8469 13.0126 46.3031 18.8907 47.3859V52.0094C18.8907 52.525 19.3204 52.9547 19.836 52.9547H22.4313C26.4876 59.7781 32.7266 66.6187 30.1657 75.0062L24.4251 86.4703C24.1157 87.0719 24.5969 87.8625 25.2844 87.8453H57.6313C58.061 87.8453 58.4219 87.5531 58.5422 87.1578L59.4016 84.2359C60.8797 80.3 63.9391 80.8672 67.5141 81.2109C72.6532 81.8984 79.3563 81.675 77.7407 74.4734C77.3282 72.9609 79.1329 71.6891 79.2704 70.0219C79.4079 69.4031 79.1157 68.7672 79.2016 68.2688C79.3047 68.0969 79.8891 67.8219 80.0954 67.5469C81.2985 66.3094 80.5594 64.0578 80.6797 62.5281C80.6969 62.5109 80.7829 62.4594 81.0751 62.425C83.2579 62.3563 85.7672 60.2078 84.3922 57.6984ZM36.1985 21.7766C36.1985 19.8516 37.7626 18.2875 39.6876 18.2875C40.2032 18.2875 40.6329 17.8578 40.6329 17.3422V13.2344H44.311C45.4282 19.1297 53.8157 19.1297 54.9329 13.2344H58.5938V17.3422C58.611 18.3219 59.5391 18.2875 60.2438 18.3563C61.8251 18.6828 63.0282 20.0922 63.0282 21.7766C63.0282 23.7016 61.4641 25.2828 59.5391 25.2828C59.0235 25.2828 58.5938 25.7125 58.5938 26.2281V31.2125H54.9157C53.8501 25.3516 45.3594 25.3516 44.2938 31.2125H40.6157V26.2281C40.6157 25.7125 40.186 25.2828 39.6704 25.2828C37.7626 25.2828 36.1985 23.7016 36.1985 21.7766ZM39.6876 38.5687C40.2032 38.5687 40.6329 38.1391 40.6329 37.6234V33.0859H45.1704C45.686 33.0859 46.1157 32.6562 46.1157 32.1406C46.236 27.5344 52.9907 27.5344 53.111 32.1406C53.111 32.6562 53.5407 33.0859 54.0563 33.0859H58.5938V36.7469C52.7157 37.8297 52.7157 46.2859 58.5938 47.3688V51.0469H54.9157C53.8501 45.1859 45.3594 45.1859 44.2938 51.0469H40.6157V46.5094C40.6157 45.9766 40.186 45.5641 39.6704 45.5641C35.0813 45.4438 35.0813 38.6891 39.6876 38.5687ZM25.3188 51.0469H20.7813V46.5094C20.7813 45.9766 20.3516 45.5641 19.836 45.5641C15.2126 45.4438 15.2126 38.6891 19.836 38.5687C20.3516 38.5687 20.7813 38.1391 20.7813 37.6234V33.0859H25.3188C25.8344 33.0859 26.2641 32.6562 26.2641 32.1406C26.3844 27.5344 33.1391 27.5344 33.2594 32.1406C33.2594 32.6562 33.6891 33.0859 34.2047 33.0859H38.7422V36.7469C32.8641 37.8813 32.8641 46.2344 38.7422 47.3688V51.0469H34.2047C33.6719 51.0469 33.2594 51.4766 33.2594 51.9922C33.1391 56.6156 26.3844 56.6156 26.2641 51.9922C26.2641 51.4594 25.8516 51.0469 25.3188 51.0469ZM82.7766 59.5547C82.4672 60.1391 81.9516 60.4141 80.8688 60.5344C77.4313 60.9984 79.511 64.3328 78.7547 66.2406C78.3079 66.6187 77.8094 66.7734 77.4829 67.5641C77.1391 68.3891 77.4485 69.0594 77.4313 69.7469C77.3454 70.2625 77.0532 70.7609 76.7438 71.2937C76.1766 72.2391 75.5063 73.3906 75.936 74.9891C76.2454 76.1062 76.1594 77.2578 75.6954 78.0484C75.3516 78.65 74.8016 79.0453 74.0797 79.2344C72.0688 79.75 69.9547 79.5437 67.7204 79.3203C61.4469 78.4953 58.4735 79.475 56.9438 85.9375H26.8313L31.9188 75.7281C34.2563 68.7672 30.6813 61.9953 27.0204 56.6328C30.1485 58.5922 34.5485 56.5297 35.0641 52.9375H45.1704C45.686 52.9375 46.1157 52.5078 46.1157 51.9922C46.0985 48.5547 50.6704 47.2313 52.5094 50.05C52.8876 50.6 53.111 51.2703 53.111 51.9922C53.111 52.5078 53.5407 52.9375 54.0563 52.9375H59.5391C60.0719 52.9375 60.4844 52.5078 60.4844 51.9922V46.5094C60.4329 45.4953 59.5735 45.5984 58.8344 45.4953C54.761 44.6188 55.3454 38.6375 59.5391 38.5859C60.0719 38.5859 60.4844 38.1562 60.4844 37.6406V27.0875C65.4344 26.2281 66.5516 19.4906 62.1344 17.05C68.2532 18.8719 73.4782 22.7734 76.8985 28.2047C79.8032 32.7766 81.4875 40.1672 78.8751 44.8422C76.486 48.6922 80.336 53.1609 81.8313 56.7875L82.6907 58.5234C82.9657 59.0734 82.8969 59.3312 82.7766 59.5547Z" fill="#2AC9BF"/>
  <path d="M32.1766 22.4125L30.836 16.6375C30.7157 16.1219 30.2001 15.8125 29.7016 15.9328C28.7907 16.1391 27.8626 15.9844 27.0548 15.4859C25.4391 14.5234 24.9063 12.2375 25.9376 10.6734C26.436 9.88281 27.2094 9.33281 28.1204 9.12656C28.6016 9.02343 28.9454 8.47343 28.8251 7.99218L27.6907 3.07656C27.5704 2.56093 27.0548 2.25156 26.5563 2.37187L22.0532 3.42031C19.6813 -2.06251 11.4485 -0.137506 11.7235 5.79218L7.22039 6.84062C6.70476 6.96093 6.39539 7.45937 6.5157 7.97499L7.46101 12.0312C1.99539 14.4203 3.9032 22.6359 9.86726 22.3781L11.0188 27.2937C11.1219 27.7922 11.6719 28.1359 12.1532 27.9984L17.4985 26.7609C18.0141 26.6406 18.3235 26.1422 18.2032 25.6266C17.4469 22.6703 20.9016 20.2125 23.4454 21.8625C24.236 22.3609 24.786 23.1344 25.0094 24.0453C25.1298 24.5609 25.6282 24.8703 26.1438 24.75L31.4891 23.5125C31.9704 23.4437 32.3141 22.8937 32.1766 22.4125ZM26.5391 22.7391C24.1501 17.2562 15.9344 19.2156 16.2094 25.1453L12.6344 25.9703L11.5001 21.1234C11.3969 20.6078 10.8641 20.2812 10.3657 20.4187C8.49226 20.8484 6.60164 19.6797 6.15476 17.7891C5.72507 15.9156 6.89382 14.025 8.78445 13.5953C9.30007 13.475 9.60945 12.9766 9.48914 12.4609L8.5782 8.47343L12.9954 7.44218C13.511 7.32187 13.8204 6.82343 13.7001 6.30781C12.7719 1.78749 19.3376 0.274994 20.5063 4.72656C20.6266 5.24218 21.1423 5.55156 21.6407 5.43124L26.0579 4.41718L26.7969 7.56249C21.3141 9.93437 23.2391 18.2016 29.2032 17.9094L30.1313 21.9312L26.5391 22.7391Z" fill="#FFC221"/>
</svg>