<svg xmlns="http://www.w3.org/2000/svg" width="89" height="88" viewBox="0 0 89 88" fill="none">
  <g clip-path="url(#clip0_35_14)">
    <path fill-rule="evenodd" clip-rule="evenodd" d="M44.4922 3.53951L43.0455 6.9151C42.6124 7.92567 41.6612 8.61835 40.5665 8.72037L36.9052 9.06157L39.6781 11.5092C40.4986 12.2335 40.8596 13.347 40.62 14.4149L39.8112 18.0211L42.9551 16.1453C43.902 15.5803 45.0825 15.5803 46.0294 16.1453L49.1733 18.0211L48.3645 14.4149C48.1249 13.347 48.4859 12.2335 49.3064 11.5092L52.0793 9.06157L48.418 8.72037C47.3233 8.61835 46.3721 7.92566 45.939 6.9151L44.4922 3.53951ZM45.4114 0.607048C45.065 -0.201048 43.9194 -0.201047 43.5731 0.607049L41.2072 6.12724C41.0629 6.4641 40.7458 6.69499 40.3809 6.729L34.4165 7.28484C33.5441 7.36614 33.1907 8.4504 33.8475 9.03023L38.3545 13.0086C38.628 13.25 38.7484 13.6212 38.6685 13.9772L37.3507 19.8525C37.1585 20.7093 38.0848 21.38 38.8388 20.9302L43.9799 17.8628C44.2955 17.6745 44.689 17.6745 45.0046 17.8628L50.1457 20.9302C50.8997 21.38 51.826 20.7093 51.6338 19.8525L50.316 13.9772C50.2361 13.6212 50.3565 13.25 50.63 13.0086L55.137 9.03023C55.7938 8.4504 55.4404 7.36614 54.568 7.28484L48.6036 6.729C48.2387 6.69499 47.9216 6.4641 47.7772 6.12724L45.4114 0.607048ZM74.3813 18.0982L74.6665 21.7686C74.7517 22.8658 74.2321 23.9232 73.3122 24.5249L70.2323 26.5393L73.8127 27.4055C74.8759 27.6627 75.7134 28.4814 75.9971 29.541L76.9524 33.1078L78.8684 29.9705C79.4431 29.0296 80.4845 28.4788 81.5818 28.5354L85.2403 28.7241L82.8547 25.9138C82.146 25.079 81.9483 23.9219 82.3391 22.8956L83.6553 19.4395L80.2592 20.8504C79.2448 21.2718 78.0831 21.1037 77.2313 20.412L74.3813 18.0982ZM73.8345 15.0743C73.1535 14.5214 72.1419 15.0564 72.21 15.9335L72.6758 21.9287C72.7042 22.2944 72.531 22.6469 72.2243 22.8475L67.2047 26.1307C66.4706 26.6107 66.662 27.7374 67.5125 27.9431L73.3406 29.353C73.695 29.4387 73.9741 29.7116 74.0687 30.0648L75.6257 35.8785C75.8529 36.7272 76.9825 36.889 77.4408 36.1385L80.5703 31.0144C80.7619 30.7007 81.109 30.5171 81.4748 30.536L87.4502 30.8442C88.3253 30.8894 88.832 29.8621 88.2644 29.1935L84.376 24.613C84.1398 24.3347 84.0739 23.949 84.2042 23.6069L86.3465 17.9812C86.6591 17.1602 85.8431 16.364 85.0338 16.7003L79.4988 18.9998C79.1606 19.1403 78.7734 19.0842 78.4895 18.8537L73.8345 15.0743ZM6.55252 22.7799L5.18773 19.3542L8.60249 20.7117C9.6211 21.1166 10.7785 20.93 11.6199 20.2252L14.4405 17.8624L14.2108 21.545C14.1423 22.6436 14.6766 23.692 15.6038 24.2782L18.7118 26.2435L15.1551 27.1621C14.0942 27.4361 13.267 28.2706 12.9986 29.3378L12.0988 32.9153L10.1304 29.8003C9.54313 28.8711 8.4976 28.3385 7.40458 28.4118L3.74057 28.6574L6.08059 25.8137C6.77861 24.9654 6.95963 23.8017 6.55252 22.7799ZM2.47452 17.9383C2.14918 17.1217 2.95363 16.3101 3.76765 16.6337L9.33645 18.8475C9.67599 18.9824 10.0618 18.9202 10.3422 18.6853L14.9421 14.832C15.6145 14.2688 16.6313 14.7867 16.5766 15.6647L16.2021 21.6704C16.1793 22.0366 16.3574 22.386 16.6664 22.5815L21.735 25.7865C22.4759 26.2551 22.2999 27.3868 21.4521 27.6058L15.6518 29.1038C15.2982 29.1951 15.0224 29.4733 14.933 29.829L13.4656 35.6632C13.2511 36.516 12.1255 36.6975 11.6563 35.9549L8.44604 30.875C8.2503 30.5652 7.90179 30.3877 7.53745 30.4121L1.56202 30.8127C0.688549 30.8713 0.168927 29.8517 0.726759 29.1738L4.54292 24.5362C4.7756 24.2534 4.83594 23.8655 4.70023 23.5249L2.47452 17.9383Z" fill="#FFC221"/>
    <path fill-rule="evenodd" clip-rule="evenodd" d="M44.4923 86C52.0311 86 58.9244 83.2074 64.2007 78.5935L64.1711 78.5963C63.7061 73.7042 61.4405 69.1592 57.8138 65.8432C54.1871 62.5271 49.4579 60.6765 44.5438 60.6504C39.6297 60.6243 34.8811 62.4246 31.2194 65.7019C27.5577 68.9792 25.2439 73.4999 24.727 78.3868L24.5495 78.368L24.5262 78.3655C29.8347 83.1153 36.83 86 44.4923 86ZM66.06 76.4078C66.0818 76.5242 66.1028 76.6408 66.1228 76.7577C71.3286 71.3295 74.5314 63.946 74.5314 55.8067C74.5314 39.1223 61.0734 25.6134 44.4923 25.6134C27.9111 25.6134 14.4531 39.1223 14.4531 55.8067C14.4531 63.8984 17.6187 71.2433 22.7708 76.6624C22.7992 76.5006 22.8295 76.3392 22.8615 76.1783C23.788 71.5213 26.2017 67.2691 29.7665 64.0786C32.4621 61.666 35.6883 59.9746 39.1468 59.1175C35.7444 57.247 33.4385 53.6286 33.4385 49.4716C33.4385 43.3965 38.3634 38.4716 44.4385 38.4716C50.5137 38.4716 55.4385 43.3965 55.4385 49.4716C55.4385 53.6286 53.1327 57.2469 49.7303 59.1175C53.2655 59.9936 56.5557 61.741 59.2839 64.2354C62.8145 67.4636 65.183 71.7412 66.06 76.4078ZM44.4432 58.4716C49.4116 58.4691 53.4385 54.4406 53.4385 49.4716C53.4385 44.5011 49.4091 40.4716 44.4385 40.4716C39.468 40.4716 35.4385 44.5011 35.4385 49.4716C35.4385 54.4422 39.468 58.4716 44.4385 58.4716C44.4401 58.4716 44.4417 58.4716 44.4432 58.4716ZM44.4923 88C62.187 88 76.5314 73.5865 76.5314 55.8067C76.5314 38.0268 62.187 23.6134 44.4923 23.6134C26.7975 23.6134 12.4531 38.0268 12.4531 55.8067C12.4531 73.5865 26.7975 88 44.4923 88Z" fill="#2AC9BF"/>
  </g>
  <defs>
    <clipPath id="clip0_35_14">
      <rect width="88" height="88" fill="white" transform="translate(0.5)"/>
    </clipPath>
  </defs>
</svg>