<svg xmlns="http://www.w3.org/2000/svg" width="26" height="22" viewBox="0 0 26 22" fill="none">
  <g clip-path="url(#clip0_124_686)">
    <path d="M15.2051 8.65391C15.2051 7.7043 14.5348 7.18008 13.3574 7.18008H11.1918V10.2395H13.018C14.4273 10.2352 15.2051 9.66797 15.2051 8.65391ZM23.0898 8.10391C22.6816 6.77617 22.6215 5.14766 22.6688 3.88867C22.716 2.57812 21.6934 1.375 20.3184 1.375H6.19023C4.81094 1.375 3.79258 2.58242 3.83984 3.88867C3.88281 5.14766 3.82695 6.77617 3.41875 8.10391C3.00625 9.43594 2.31445 10.2781 1.17578 10.3855V11.6102C2.31016 11.7176 3.00625 12.5598 3.41875 13.8918C3.82695 15.2195 3.88711 16.848 3.83984 18.107C3.79258 19.4176 4.81523 20.6207 6.19023 20.6207H20.3141C21.6934 20.6207 22.7117 19.4133 22.6645 18.107C22.6215 16.848 22.6773 15.2195 23.0855 13.8918C23.498 12.5598 24.1898 11.7176 25.3242 11.6102V10.3855C24.1941 10.2781 23.498 9.43594 23.0898 8.10391ZM13.7742 16.1176H9.56758V5.87813H13.7527C15.6133 5.87813 16.8336 6.88359 16.8336 8.43047C16.8336 9.51758 16.0129 10.4887 14.9645 10.6562V10.7121C16.391 10.8668 17.3492 11.8551 17.3492 13.2172C17.3492 15.0262 16.0043 16.1176 13.7742 16.1176ZM13.3445 11.4469H11.1918V14.8156H13.4391C14.9086 14.8156 15.6863 14.227 15.6863 13.1184C15.6863 12.0141 14.8871 11.4469 13.3445 11.4469Z" fill="#2AC9BF"/>
  </g>
  <defs>
    <clipPath id="clip0_124_686">
      <rect width="24.75" height="22" fill="white" transform="translate(0.875)"/>
    </clipPath>
  </defs>
</svg>