<svg xmlns="http://www.w3.org/2000/svg" width="33" height="22" viewBox="0 0 33 22" fill="none">
  <path d="M32.1679 2.71629C32.0667 2.65623 31.9516 2.62353 31.834 2.62139C31.7163 2.61925 31.6001 2.64775 31.4968 2.70408L24.1546 6.7131V4.30768C24.1525 2.43636 22.6361 0.919948 20.7648 0.917847H3.88983C2.01851 0.919948 0.502102 2.43636 0.5 4.30768V17.6922C0.502102 19.5635 2.01851 21.0799 3.88983 21.0821H20.7648C22.6361 21.0799 24.1525 19.5635 24.1546 17.6922V15.3305L31.4971 19.3395C31.6003 19.3958 31.7165 19.4244 31.8341 19.4223C31.9518 19.4202 32.0668 19.3875 32.168 19.3274C32.2692 19.2674 32.353 19.182 32.4112 19.0798C32.4694 18.9776 32.5 18.8619 32.5 18.7443V3.2992C32.5 3.18158 32.4694 3.06598 32.4111 2.96378C32.3529 2.86157 32.2691 2.77628 32.1679 2.71629ZM22.7982 17.6925C22.7972 18.8153 21.8872 19.725 20.7643 19.7264H3.88983C2.76692 19.725 1.85729 18.8153 1.85593 17.6925V4.30768C1.85729 3.18503 2.76698 2.27513 3.88983 2.27378H20.7648C21.8875 2.27513 22.7974 3.18503 22.7987 4.30768L22.7982 17.6925ZM31.1441 17.6019L24.1546 13.7856V8.25791L31.1441 4.44191V17.6019Z" fill="white"/>
</svg>