<svg xmlns="http://www.w3.org/2000/svg" width="33" height="32" viewBox="0 0 33 32" fill="none">
  <path d="M1.90875 31.4064L3.92088 23.357C1.71069 20.8835 0.5 17.8134 0.5 14.6561C0.5 10.8761 2.17406 7.32944 5.21362 4.66982C8.2175 2.04113 12.2036 0.593628 16.4375 0.593628C20.677 0.593628 24.6838 2.03988 27.72 4.66638C30.8025 7.33288 32.5 10.8808 32.5 14.6561C32.5 18.4315 30.8025 21.9794 27.72 24.6459C24.6838 27.2723 20.677 28.7186 16.4375 28.7186C14.1487 28.7186 11.9294 28.2899 9.83425 27.4435L1.90875 31.4064ZM16.4375 2.46863C8.68337 2.46863 2.375 7.93594 2.375 14.6561C2.375 17.4923 3.53075 20.2577 5.62962 22.4428L5.98875 22.8165L4.71625 27.9059L9.771 25.3788L10.1721 25.5524C12.1496 26.4093 14.2578 26.8436 16.4375 26.8436C24.2605 26.8436 30.625 21.3763 30.625 14.6561C30.625 7.93594 24.2605 2.46863 16.4375 2.46863Z" fill="white"/>
  <path d="M9.875 16.5311C8.84106 16.5311 8 15.6901 8 14.6561C8 13.6222 8.84106 12.7811 9.875 12.7811C10.9089 12.7811 11.75 13.6222 11.75 14.6561C11.75 15.6901 10.9089 16.5311 9.875 16.5311ZM16.4375 16.5311C15.4036 16.5311 14.5625 15.6901 14.5625 14.6561C14.5625 13.6222 15.4036 12.7811 16.4375 12.7811C17.4714 12.7811 18.3125 13.6222 18.3125 14.6561C18.3125 15.6901 17.4714 16.5311 16.4375 16.5311ZM23 16.5311C21.9661 16.5311 21.125 15.6901 21.125 14.6561C21.125 13.6222 21.9661 12.7811 23 12.7811C24.0339 12.7811 24.875 13.6222 24.875 14.6561C24.875 15.6901 24.0339 16.5311 23 16.5311Z" fill="white"/>
</svg>