<svg xmlns="http://www.w3.org/2000/svg" width="33" height="32" viewBox="0 0 33 32" fill="none">
  <path d="M16.5003 5.2174C16.8829 5.2174 17.1959 4.90436 17.1959 4.52175V4.17392C17.1959 3.79131 16.8829 3.47827 16.5003 3.47827C16.1176 3.47827 15.8046 3.79131 15.8046 4.17392V4.52175C15.8046 4.90436 16.1176 5.2174 16.5003 5.2174ZM16.5003 26.7826C16.1176 26.7826 15.8046 27.0957 15.8046 27.4783V27.8261C15.8046 28.2087 16.1176 28.5217 16.5003 28.5217C16.8829 28.5217 17.1959 28.2087 17.1959 27.8261V27.4783C17.1959 27.0957 16.8829 26.7826 16.5003 26.7826ZM5.02199 15.3044H4.67417C4.29156 15.3044 3.97852 15.6174 3.97852 16C3.97852 16.3826 4.29156 16.6957 4.67417 16.6957H5.02199C5.4046 16.6957 5.71765 16.3826 5.71765 16C5.71765 15.6174 5.4046 15.3044 5.02199 15.3044ZM28.3263 15.3044H27.9785C27.5959 15.3044 27.2829 15.6174 27.2829 16C27.2829 16.3826 27.5959 16.6957 27.9785 16.6957H28.3263C28.709 16.6957 29.022 16.3826 29.022 16C29.022 15.6174 28.709 15.3044 28.3263 15.3044ZM8.63939 7.16523C8.36112 6.88697 7.94373 6.88697 7.66547 7.16523C7.38721 7.44349 7.38721 7.86088 7.66547 8.13914L7.90895 8.38262C8.04808 8.52175 8.22199 8.59132 8.39591 8.59132C8.56982 8.59132 8.74373 8.52175 8.88286 8.38262C9.16112 8.10436 9.16112 7.68697 8.88286 7.40871L8.63939 7.16523ZM7.90895 23.6174L7.66547 23.8609C7.38721 24.1391 7.38721 24.5565 7.66547 24.8348C7.8046 24.9739 7.97852 25.0435 8.15243 25.0435C8.32634 25.0435 8.50025 24.9739 8.63939 24.8348L8.88286 24.5913C9.16112 24.3131 9.16112 23.8957 8.88286 23.6174C8.6046 23.3391 8.18721 23.3391 7.90895 23.6174ZM24.3611 7.16523L24.1176 7.40871C23.8394 7.68697 23.8394 8.10436 24.1176 8.38262C24.2568 8.52175 24.4307 8.59132 24.6046 8.59132C24.7785 8.59132 24.9524 8.52175 25.0916 8.38262L25.335 8.13914C25.6133 7.86088 25.6133 7.44349 25.335 7.16523C25.0568 6.88697 24.6394 6.88697 24.3611 7.16523ZM17.1959 15.7218V9.39131C17.1959 9.00871 16.8829 8.69566 16.5003 8.69566C16.1176 8.69566 15.8046 9.00871 15.8046 9.39131V16C15.8046 16.1739 15.8742 16.3478 16.0133 16.487L23.6307 24.1044C23.7698 24.2435 23.9437 24.3131 24.1176 24.3131C24.2916 24.3131 24.4655 24.2435 24.6046 24.1044C24.8829 23.8261 24.8829 23.4087 24.6046 23.1304L17.1959 15.7218Z" fill="white"/>
  <path d="M16.5 0C7.66522 0 0.5 7.16522 0.5 16C0.5 24.8348 7.66522 32 16.5 32C25.3348 32 32.5 24.8348 32.5 16C32.5 7.16522 25.3348 0 16.5 0ZM16.5 30.6087C8.43043 30.6087 1.8913 24.0696 1.8913 16C1.8913 7.93043 8.43043 1.3913 16.5 1.3913C24.5696 1.3913 31.1087 7.93043 31.1087 16C31.1087 24.0696 24.5696 30.6087 16.5 30.6087Z" fill="white"/>
</svg>