<svg xmlns="http://www.w3.org/2000/svg" width="28" height="22" viewBox="0 0 28 22" fill="none">
  <g clip-path="url(#clip0_124_736)">
    <path d="M17.0031 0.0515689C16.2727 -0.158978 15.5121 0.266413 15.3016 0.996881L9.80159 20.2469C9.59104 20.9774 10.0164 21.7379 10.7469 21.9484C11.4774 22.159 12.2379 21.7336 12.4485 21.0031L17.9485 1.75313C18.159 1.02266 17.7336 0.262116 17.0031 0.0515689ZM20.4664 5.21212C19.9293 5.74923 19.9293 6.62149 20.4664 7.1586L24.3035 11L20.4621 14.8414C19.925 15.3785 19.925 16.2508 20.4621 16.7879C20.9992 17.325 21.8715 17.325 22.4086 16.7879L27.2211 11.9754C27.7582 11.4383 27.7582 10.566 27.2211 10.0289L22.4086 5.21641C21.8715 4.6793 20.9992 4.6793 20.4621 5.21641L20.4664 5.21212ZM7.28792 5.21212C6.75081 4.67501 5.87854 4.67501 5.34143 5.21212L0.528931 10.0246C-0.00817871 10.5617 -0.00817871 11.434 0.528931 11.9711L5.34143 16.7836C5.87854 17.3207 6.75081 17.3207 7.28792 16.7836C7.82502 16.2465 7.82502 15.3742 7.28792 14.8371L3.44651 11L7.28792 7.1586C7.82502 6.62149 7.82502 5.74923 7.28792 5.21212Z" fill="#2AC9BF"/>
  </g>
  <defs>
    <clipPath id="clip0_124_736">
      <rect width="27.5" height="22" fill="white" transform="translate(0.125)"/>
    </clipPath>
  </defs>
</svg>