<svg xmlns="http://www.w3.org/2000/svg" width="23" height="22" viewBox="0 0 23 22" fill="none">
  <g clip-path="url(#clip0_124_720)">
    <path d="M5.28555 1.60875C7.04727 0.525509 9.04961 -0.0333124 11.082 7.00685e-05C18.3008 7.00685e-05 22.125 5.31953 22.125 9.43164C22.1207 10.8367 21.5664 12.1773 20.5824 13.1785C19.5984 14.1754 18.2621 14.7469 16.857 14.7684C13.6258 14.7684 12.9254 13.7758 12.9254 13.3934C12.9254 13.2301 12.977 13.127 13.1316 12.9895L13.1746 12.9379L13.1918 12.8691C13.643 12.375 13.875 11.7434 13.875 11.0816C13.875 7.7 10.343 4.95 5.96875 4.95C4.3557 4.93711 2.76586 5.33242 1.34875 6.10586C2.50891 3.6343 4.90313 1.91211 5.27266 1.64485C5.30703 1.62121 5.28555 1.60875 5.28555 1.60875ZM5.95586 15.2754C5.8957 16.5645 6.15352 17.8535 6.66055 19.0223C7.24492 20.1566 8.06563 21.2137 9.08828 22C6.53164 21.5059 4.2977 20.1137 2.66875 18.1629C1.0325 16.1691 0.125 13.6813 0.125 11.0816C0.125 8.88164 2.80625 7.02539 5.96875 7.02539C7.54141 6.99961 9.07969 7.49375 10.343 8.43047L10.1883 8.48203C7.97539 9.23828 5.95586 12.3793 5.95586 15.2754ZM20.3117 17.1875L20.2816 17.1918C19.7746 17.9996 19.1687 18.7 18.4684 19.3188C17.1449 20.5219 15.5422 21.2738 13.7934 21.4629C12.9941 21.4758 12.2121 21.3254 11.4816 20.973C10.3816 20.5305 9.45781 19.684 8.83477 18.6957C8.21602 17.6688 7.92812 16.4742 8.01836 15.2754C7.99258 14.4117 8.25039 13.5438 8.66289 12.7746C9.26016 14.1969 10.2742 15.4086 11.5676 16.2465C12.8609 17.0844 14.382 17.5141 15.9246 17.4754C17.2566 17.4883 18.593 17.1875 19.8004 16.5945L19.882 16.5559C20.0496 16.457 20.2129 16.3883 20.3805 16.5559C20.5738 16.7664 20.4578 16.9512 20.3289 17.1574C20.3203 17.166 20.316 17.1789 20.3117 17.1875Z" fill="#2AC9BF"/>
  </g>
  <defs>
    <clipPath id="clip0_124_720">
      <rect width="22" height="22" fill="white" transform="translate(0.125)"/>
    </clipPath>
  </defs>
</svg>