<svg xmlns="http://www.w3.org/2000/svg" width="23" height="22" viewBox="0 0 23 22" fill="none">
  <g clip-path="url(#clip0_124_711)">
    <path d="M9.90624 8.0223C8.87929 8.61527 8.18749 9.72816 8.18749 11H1.99999C1.23944 11 0.616397 10.3813 0.710929 9.62933C1.08476 6.61722 2.6789 3.98324 4.97773 2.23441C5.58359 1.77464 6.43007 2.00667 6.81249 2.6641L9.90624 8.0223ZM11.625 14.4375C12.2523 14.4375 12.8367 14.27 13.3437 13.9778L16.4375 19.3403C16.8156 19.9977 16.5965 20.8485 15.8961 21.1407C14.5812 21.695 13.1375 22 11.625 22C10.1125 22 8.66444 21.695 7.3539 21.1407C6.65351 20.8442 6.43437 19.9977 6.81249 19.3403L9.90624 13.9778C10.4133 14.27 10.9976 14.4375 11.625 14.4375ZM21.25 11H15.0625C15.0625 9.72816 14.3707 8.61527 13.3437 8.0223L16.4375 2.6641C16.8156 2.00667 17.6664 1.77464 18.2723 2.23441C20.5754 3.98324 22.1652 6.61722 22.5434 9.62933C22.6379 10.3813 22.0105 11 21.2543 11H21.25ZM11.625 8.93753C12.172 8.93753 12.6966 9.15483 13.0834 9.54163C13.4702 9.92842 13.6875 10.453 13.6875 11C13.6875 11.547 13.4702 12.0716 13.0834 12.4584C12.6966 12.8452 12.172 13.0625 11.625 13.0625C11.078 13.0625 10.5534 12.8452 10.1666 12.4584C9.77979 12.0716 9.56249 11.547 9.56249 11C9.56249 10.453 9.77979 9.92842 10.1666 9.54163C10.5534 9.15483 11.078 8.93753 11.625 8.93753Z" fill="#2AC9BF"/>
  </g>
  <defs>
    <clipPath id="clip0_124_711">
      <rect width="22" height="22" fill="white" transform="translate(0.625)"/>
    </clipPath>
  </defs>
</svg>