<svg xmlns="http://www.w3.org/2000/svg" width="23" height="22" viewBox="0 0 23 22" fill="none">
  <g clip-path="url(#clip0_124_703)">
    <path d="M22.1223 0.313728C22.4402 0.57154 22.625 0.962556 22.625 1.37506V7.56256C22.625 8.70123 21.3918 9.62506 19.875 9.62506C18.3582 9.62506 17.125 8.70123 17.125 7.56256C17.125 6.42388 18.3582 5.50006 19.875 5.50006V3.05084L15.75 3.87584V8.93756C15.75 10.0762 14.5168 11.0001 13 11.0001C11.4832 11.0001 10.25 10.0762 10.25 8.93756C10.25 7.79888 11.4832 6.87506 13 6.87506V2.75006C13 2.09263 13.4641 1.52974 14.1043 1.40084L20.9793 0.0258373C21.3832 -0.0558033 21.8 0.0516186 22.1223 0.309431V0.313728ZM3.83477 13.0626L4.3418 12.2977C4.59531 11.9153 5.025 11.6876 5.48477 11.6876H8.13594C8.5957 11.6876 9.02539 11.9153 9.27891 12.2977L9.79023 13.0626H10.9375C12.0762 13.0626 13 13.9864 13 15.1251V19.9376C13 21.0762 12.0762 22.0001 10.9375 22.0001H2.6875C1.54883 22.0001 0.625 21.0762 0.625 19.9376V15.1251C0.625 13.9864 1.54883 13.0626 2.6875 13.0626H3.83477ZM8.875 17.5313C8.875 16.9843 8.6577 16.4597 8.27091 16.0729C7.88411 15.6861 7.35951 15.4688 6.8125 15.4688C6.26549 15.4688 5.74089 15.6861 5.35409 16.0729C4.9673 16.4597 4.75 16.9843 4.75 17.5313C4.75 18.0783 4.9673 18.6029 5.35409 18.9897C5.74089 19.3765 6.26549 19.5938 6.8125 19.5938C7.35951 19.5938 7.88411 19.3765 8.27091 18.9897C8.6577 18.6029 8.875 18.0783 8.875 17.5313ZM21.1941 11.9583L19.5441 15.8126H21.9375C22.2254 15.8126 22.4789 15.9887 22.582 16.2594C22.6852 16.5301 22.6078 16.8309 22.393 17.02L16.893 21.8325C16.6523 22.043 16.2957 22.0602 16.0379 21.8711C15.7801 21.6821 15.6855 21.3383 15.8102 21.0461L17.4559 17.1876H15.0625C14.7746 17.1876 14.5211 17.0114 14.418 16.7407C14.3148 16.47 14.3922 16.1692 14.607 15.9801L20.107 11.1676C20.3477 10.9571 20.7043 10.9399 20.9621 11.129C21.2199 11.318 21.3145 11.6618 21.1898 11.954L21.1941 11.9583ZM6.62773 9.41451C6.34844 9.69381 5.89727 9.69381 5.63945 9.41451L1.48008 5.12193C0.276953 3.87584 0.341406 1.81763 1.69492 0.657478C2.85508 -0.352288 4.63398 -0.158928 5.7082 0.936775L6.13789 1.38795L6.54609 0.936775C7.62031 -0.158928 9.37773 -0.352288 10.5809 0.657478C11.9129 1.81763 11.9773 3.87584 10.7742 5.12193L6.63203 9.41451H6.62773Z" fill="#2AC9BF"/>
  </g>
  <defs>
    <clipPath id="clip0_124_703">
      <rect width="22" height="22" fill="white" transform="translate(0.625)"/>
    </clipPath>
  </defs>
</svg>