<svg xmlns="http://www.w3.org/2000/svg" width="20" height="22" viewBox="0 0 20 22" fill="none">
  <g clip-path="url(#clip0_124_724)">
    <path d="M4.25 0C1.97266 0 0.125 1.84766 0.125 4.125V17.875C0.125 20.1523 1.97266 22 4.25 22H16.625H18C18.7605 22 19.375 21.3855 19.375 20.625C19.375 19.8645 18.7605 19.25 18 19.25V16.5C18.7605 16.5 19.375 15.8855 19.375 15.125V1.375C19.375 0.614453 18.7605 0 18 0H16.625H4.25ZM4.25 16.5H15.25V19.25H4.25C3.48945 19.25 2.875 18.6355 2.875 17.875C2.875 17.1145 3.48945 16.5 4.25 16.5ZM5.625 6.1875C5.625 5.80937 5.93437 5.5 6.3125 5.5H14.5625C14.9406 5.5 15.25 5.80937 15.25 6.1875C15.25 6.56563 14.9406 6.875 14.5625 6.875H6.3125C5.93437 6.875 5.625 6.56563 5.625 6.1875ZM6.3125 8.25H14.5625C14.9406 8.25 15.25 8.55937 15.25 8.9375C15.25 9.31563 14.9406 9.625 14.5625 9.625H6.3125C5.93437 9.625 5.625 9.31563 5.625 8.9375C5.625 8.55937 5.93437 8.25 6.3125 8.25Z" fill="#2AC9BF"/>
  </g>
  <defs>
    <clipPath id="clip0_124_724">
      <rect width="19.25" height="22" fill="white" transform="translate(0.125)"/>
    </clipPath>
  </defs>
</svg>