<svg xmlns="http://www.w3.org/2000/svg" width="23" height="22" viewBox="0 0 23 22" fill="none">
  <path d="M0.625 3C0.625 1.34315 1.96815 0 3.625 0H19.625C21.2819 0 22.625 1.34315 22.625 3V19C22.625 20.6569 21.2819 22 19.625 22H3.625C1.96815 22 0.625 20.6569 0.625 19V3Z" fill="#2AC9BF"/>
  <path d="M11.025 5.39286C9.77768 5.39286 9.18839 5.90357 8.19643 6.1V5.78571C8.19643 5.35357 7.84286 5 7.41071 5C6.97857 5 6.625 5.35357 6.625 5.78571V15.2143C6.625 15.2536 6.62991 15.2929 6.63482 15.3321C6.63973 15.3518 6.63973 15.3714 6.64464 15.3911C6.72321 15.7397 7.0375 16 7.41071 16C7.78393 16 8.09821 15.7397 8.17679 15.3911C8.1817 15.3714 8.18661 15.3518 8.18661 15.3321C8.19152 15.2929 8.19643 15.2536 8.19643 15.2143V7.67143C8.39286 7.63214 8.57455 7.58304 8.74643 7.52411C9.44866 7.2933 10.0232 6.96429 11.025 6.96429C12.567 6.96429 13.1464 7.75 14.6884 7.75C15.1254 7.75 15.4692 7.69598 15.8768 7.57812C15.9357 7.56339 15.9946 7.54375 16.0536 7.52411V12.2384C15.5625 12.3955 15.1893 12.4643 14.6884 12.4643C13.1464 12.4643 12.5571 11.6786 11.025 11.6786C10.5241 11.6786 10.1312 11.767 9.76786 11.875V13.4464C10.1312 13.3286 10.5241 13.25 11.025 13.25C12.567 13.25 13.1464 14.0357 14.6884 14.0357C15.6018 14.0357 16.0732 13.8 17.625 13.25V5.39286C16.0732 5.94286 15.6018 6.17857 14.6884 6.17857C13.1464 6.17857 12.5571 5.39286 11.025 5.39286Z" fill="white"/>
</svg>