<svg xmlns="http://www.w3.org/2000/svg" width="23" height="22" viewBox="0 0 23 22" fill="none">
  <path d="M20.8125 17.875H19.8066L14.1902 2.30699C14.0976 2.03515 13.9223 1.79909 13.6888 1.63194C13.4553 1.46479 13.1754 1.37494 12.8882 1.375H10.8618C10.5746 1.37494 10.2947 1.46479 10.0612 1.63194C9.82767 1.79909 9.65236 2.03515 9.55984 2.30699L3.9434 17.875H2.9375C2.75516 17.875 2.5803 17.9474 2.45136 18.0764C2.32243 18.2053 2.25 18.3802 2.25 18.5625V19.9375C2.25 20.1198 2.32243 20.2947 2.45136 20.4236C2.5803 20.5526 2.75516 20.625 2.9375 20.625H8.4375C8.61984 20.625 8.7947 20.5526 8.92364 20.4236C9.05257 20.2947 9.125 20.1198 9.125 19.9375V18.5625C9.125 18.3802 9.05257 18.2053 8.92364 18.0764C8.7947 17.9474 8.61984 17.875 8.4375 17.875H7.59617L8.59734 15.125H15.1527L16.1538 17.875H15.3125C15.1302 17.875 14.9553 17.9474 14.8264 18.0764C14.6974 18.2053 14.625 18.3802 14.625 18.5625V19.9375C14.625 20.1198 14.6974 20.2947 14.8264 20.4236C14.9553 20.5526 15.1302 20.625 15.3125 20.625H20.8125C20.9948 20.625 21.1697 20.5526 21.2986 20.4236C21.4276 20.2947 21.5 20.1198 21.5 19.9375V18.5625C21.5 18.3802 21.4276 18.2053 21.2986 18.0764C21.1697 17.9474 20.9948 17.875 20.8125 17.875ZM9.84902 11.6875L11.875 6.12348L13.901 11.6875H9.84902Z" fill="#2AC9BF"/>
</svg>