<svg xmlns="http://www.w3.org/2000/svg" width="23" height="22" viewBox="0 0 23 22" fill="none">
  <g clip-path="url(#clip0_124_678)">
    <path d="M11.5836 6.88499L4.54169 12.6848V18.9445C4.54169 19.1066 4.60607 19.262 4.72068 19.3766C4.83529 19.4912 4.99072 19.5556 5.1528 19.5556L9.43287 19.5445C9.59442 19.5437 9.74907 19.479 9.86302 19.3645C9.97696 19.25 10.0409 19.095 10.0409 18.9334V15.2778C10.0409 15.1158 10.1053 14.9603 10.2199 14.8457C10.3345 14.7311 10.49 14.6667 10.652 14.6667H13.0965C13.2586 14.6667 13.414 14.7311 13.5286 14.8457C13.6432 14.9603 13.7076 15.1158 13.7076 15.2778V18.9308C13.7073 19.0112 13.723 19.0908 13.7536 19.1652C13.7842 19.2396 13.8291 19.3072 13.8859 19.3641C13.9427 19.4211 14.0101 19.4662 14.0844 19.4971C14.1587 19.5279 14.2383 19.5438 14.3187 19.5438L18.5972 19.5556C18.7593 19.5556 18.9148 19.4912 19.0294 19.3766C19.144 19.262 19.2084 19.1066 19.2084 18.9445V12.6806L12.168 6.88499C12.0852 6.81827 11.9821 6.78189 11.8758 6.78189C11.7695 6.78189 11.6664 6.81827 11.5836 6.88499ZM22.707 10.827L19.5139 8.19506V2.90474C19.5139 2.78319 19.4656 2.66661 19.3797 2.58065C19.2937 2.4947 19.1771 2.44641 19.0556 2.44641H16.9167C16.7951 2.44641 16.6786 2.4947 16.5926 2.58065C16.5066 2.66661 16.4584 2.78319 16.4584 2.90474V5.67804L13.0388 2.86464C12.7106 2.5946 12.2989 2.44695 11.8739 2.44695C11.4489 2.44695 11.0371 2.5946 10.7089 2.86464L1.04079 10.827C0.994376 10.8654 0.955978 10.9125 0.927788 10.9657C0.899597 11.0189 0.882166 11.0772 0.876491 11.1371C0.870816 11.1971 0.877008 11.2575 0.894713 11.3151C0.912417 11.3726 0.941288 11.4261 0.979676 11.4725L1.95363 12.6566C1.99192 12.7031 2.03901 12.7416 2.0922 12.77C2.1454 12.7983 2.20366 12.8159 2.26366 12.8216C2.32365 12.8274 2.38419 12.8213 2.44182 12.8037C2.49945 12.786 2.55303 12.7572 2.5995 12.7188L11.5836 5.31902C11.6664 5.2523 11.7695 5.21592 11.8758 5.21592C11.9821 5.21592 12.0852 5.2523 12.168 5.31902L21.1525 12.7188C21.1988 12.7572 21.2523 12.7861 21.3099 12.8038C21.3674 12.8215 21.4279 12.8277 21.4879 12.822C21.5478 12.8163 21.606 12.7989 21.6592 12.7707C21.7125 12.7425 21.7596 12.7041 21.7979 12.6577L22.7719 11.4737C22.8102 11.427 22.839 11.3732 22.8565 11.3154C22.874 11.2576 22.8799 11.1969 22.8739 11.1369C22.8678 11.0768 22.85 11.0185 22.8213 10.9653C22.7927 10.9121 22.7538 10.8651 22.707 10.827Z" fill="#2AC9BF"/>
  </g>
  <defs>
    <clipPath id="clip0_124_678">
      <rect width="22" height="22" fill="white" transform="translate(0.875)"/>
    </clipPath>
  </defs>
</svg>