<svg xmlns="http://www.w3.org/2000/svg" width="26" height="20" viewBox="0 0 26 20" fill="none">
  <g clip-path="url(#clip0_124_715)">
    <path d="M12.1875 5.3125V3.4375H14.0625V5.3125H12.1875ZM11.875 1.25C10.8398 1.25 10 2.08984 10 3.125V3.28125H5.375C4.96875 2.44922 4.11328 1.875 3.125 1.875C1.74609 1.875 0.625 2.99609 0.625 4.375C0.625 5.75391 1.74609 6.875 3.125 6.875C4.11328 6.875 4.96875 6.30078 5.375 5.46875H7.98828C5.6875 7.01562 4.125 9.57031 3.92578 12.5H3.75C2.71484 12.5 1.875 13.3398 1.875 14.375V16.875C1.875 17.9102 2.71484 18.75 3.75 18.75H6.25C7.28516 18.75 8.125 17.9102 8.125 16.875V14.375C8.125 13.3398 7.28516 12.5 6.25 12.5H6.12109C6.35156 9.88281 8.01562 7.67969 10.3203 6.67578C10.6562 7.17187 11.2266 7.5 11.875 7.5H14.375C15.0234 7.5 15.5898 7.17187 15.9297 6.67578C18.2344 7.67969 19.8984 9.88281 20.1289 12.5H20C18.9648 12.5 18.125 13.3398 18.125 14.375V16.875C18.125 17.9102 18.9648 18.75 20 18.75H22.5C23.5352 18.75 24.375 17.9102 24.375 16.875V14.375C24.375 13.3398 23.5352 12.5 22.5 12.5H22.3242C22.1289 9.57031 20.5625 7.01562 18.2617 5.46875H20.875C21.2812 6.30078 22.1367 6.875 23.125 6.875C24.5039 6.875 25.625 5.75391 25.625 4.375C25.625 2.99609 24.5039 1.875 23.125 1.875C22.1367 1.875 21.2812 2.44922 20.875 3.28125H16.25V3.125C16.25 2.08984 15.4102 1.25 14.375 1.25H11.875ZM4.0625 14.6875H5.9375V16.5625H4.0625V14.6875ZM20.3125 16.5625V14.6875H22.1875V16.5625H20.3125Z" fill="#2AC9BF"/>
  </g>
  <defs>
    <clipPath id="clip0_124_715">
      <rect width="25" height="20" fill="white" transform="translate(0.625)"/>
    </clipPath>
  </defs>
</svg>