<svg xmlns="http://www.w3.org/2000/svg" width="23" height="22" viewBox="0 0 23 22" fill="none">
  <g clip-path="url(#clip0_124_690)">
    <path d="M11.2507 15.2254C11.2301 15.2625 11.2404 15.246 11.2507 15.2254V15.2254ZM19.8146 12.2347C19.1232 12.2345 18.4411 12.3933 17.8208 12.6988C17.618 12.2897 17.4083 11.9322 17.374 11.6641C17.3327 11.3513 17.288 11.1657 17.3362 10.7944C17.3843 10.4232 17.6008 9.89723 17.5974 9.85941C17.594 9.8216 17.5493 9.63254 17.1058 9.6291C16.6624 9.62566 16.2808 9.71504 16.2365 9.83191C16.1582 10.0455 16.0973 10.2651 16.0543 10.4885C15.9752 10.8907 15.1678 12.3275 14.7106 13.0769C14.5593 12.7847 14.4322 12.5269 14.4047 12.3207C14.3634 12.0079 14.3187 11.8222 14.3668 11.451C14.415 11.0797 14.6315 10.5538 14.6281 10.516C14.6247 10.4782 14.58 10.2891 14.1369 10.2857C13.6938 10.2822 13.3119 10.3716 13.2672 10.4885C13.2225 10.6054 13.1744 10.8804 13.085 11.145C12.9956 11.4097 11.92 13.8022 11.6385 14.4244C11.4941 14.7407 11.3704 14.995 11.281 15.1669C11.2673 15.1944 11.2569 15.2116 11.2501 15.2254C11.2604 15.2082 11.2673 15.191 11.2673 15.1979C11.1916 15.3457 11.1469 15.4282 11.1469 15.4282V15.4316C11.0885 15.5416 11.0232 15.6413 10.9922 15.6413C10.9716 15.6413 10.9269 15.3525 11.0026 14.9572C11.1641 14.1254 11.5457 12.8329 11.5422 12.7882C11.5388 12.7641 11.6144 12.5407 11.2913 12.4204C10.9785 12.3069 10.8651 12.496 10.8376 12.496C10.8101 12.496 10.7894 12.5647 10.7894 12.5647C10.7894 12.5647 11.1366 11.1072 10.1229 11.1072C9.49041 11.1072 8.61041 11.8016 8.17797 12.4307C7.90641 12.5785 7.31859 12.8982 6.69984 13.2385C6.46266 13.3691 6.21859 13.5032 5.98828 13.6304C5.97109 13.6132 5.95734 13.596 5.94016 13.5788C4.70987 12.2657 2.43837 11.3375 2.53462 9.5741C2.569 8.93129 2.79244 7.24348 6.90266 5.19473C10.2714 3.51723 12.9647 3.97785 13.4284 5.00223C14.0953 6.46316 11.9884 9.18223 8.49009 9.5741C7.15669 9.72191 6.45578 9.20629 6.28047 9.01379C6.09828 8.81098 6.07078 8.80066 6.00203 8.83848C5.88859 8.90035 5.96078 9.0791 6.00203 9.18566C6.10516 9.45723 6.53484 9.93848 7.26669 10.1791C7.9095 10.3888 9.47287 10.5057 11.3632 9.77348C13.4868 8.95535 15.1399 6.67629 14.6552 4.76848C14.1616 2.82973 10.9469 2.19379 7.90709 3.27316C6.09587 3.91598 4.13719 4.9266 2.72816 6.24316C1.05444 7.81066 0.786656 9.17535 0.896656 9.74598C1.28819 11.7707 4.07875 13.0907 5.19559 14.0669C5.14059 14.0979 5.08903 14.1254 5.04091 14.1529C4.48094 14.4313 2.35347 15.545 1.821 16.7207C1.21944 18.0544 1.92069 19.01 2.38097 19.1407C3.8175 19.5394 5.28841 18.821 6.07869 17.6419C6.86897 16.4629 6.77306 14.9229 6.40869 14.2216C6.40525 14.2113 6.39837 14.2044 6.39494 14.1941C6.53931 14.1082 6.68712 14.0222 6.83494 13.9363C7.11991 13.7679 7.39834 13.6132 7.64241 13.4791C7.50491 13.8504 7.40522 14.2972 7.35366 14.9435C7.29178 15.6997 7.60459 16.6794 8.01022 17.0644C8.18897 17.2329 8.40519 17.2363 8.53925 17.2363C9.01363 17.2363 9.22675 16.8444 9.46359 16.3769C9.75578 15.8063 10.0136 15.1429 10.0136 15.1429C10.0136 15.1429 9.69047 16.9372 10.5739 16.9372C10.8967 16.9372 11.2198 16.5213 11.3645 16.3082V16.3116C11.3645 16.3116 11.3714 16.2979 11.3886 16.2704C11.423 16.2188 11.4402 16.1879 11.4402 16.1879V16.1775C11.5708 15.9541 11.8561 15.4419 12.2854 14.5963C12.8423 13.5032 13.3748 12.1385 13.3748 12.1385C13.4262 12.4385 13.4974 12.7347 13.5879 13.0254C13.6842 13.3519 13.887 13.7094 14.0485 14.0566C13.9179 14.2354 13.8388 14.3385 13.8388 14.3385C13.8391 14.3411 13.8403 14.3436 13.8423 14.3454C13.7392 14.4829 13.6223 14.6307 13.502 14.775C13.0623 15.2975 12.5395 15.8957 12.4707 16.0675C12.3882 16.2704 12.4088 16.4216 12.567 16.5385C12.6838 16.6279 12.8901 16.6416 13.1063 16.6244C13.5016 16.5969 13.7801 16.5007 13.9141 16.4388C14.1613 16.3502 14.3949 16.2275 14.6082 16.0744C15.0378 15.7582 15.2991 15.3044 15.275 14.7063C15.2613 14.3763 15.1547 14.0463 15.0241 13.7369C15.0619 13.6819 15.1032 13.6235 15.141 13.565C15.8212 12.5716 16.3472 11.4812 16.3472 11.4812C16.3986 11.7812 16.4698 12.0775 16.5603 12.3681C16.6428 12.6465 16.804 12.9525 16.9518 13.2515C16.3128 13.7706 15.9175 14.3722 15.78 14.7675C15.5256 15.4997 15.725 15.8297 16.0997 15.9053C16.2681 15.9397 16.5087 15.8606 16.6875 15.785C16.953 15.6966 17.2033 15.5679 17.4297 15.4034C17.8593 15.0872 18.2749 14.6437 18.2474 14.0422C18.2371 13.7706 18.1615 13.499 18.0618 13.2378C18.6015 13.0109 19.3024 12.8872 20.1962 12.9903C22.1102 13.2137 22.4848 14.41 22.4127 14.9084C22.3405 15.4069 21.9383 15.6853 21.8042 15.7678C21.6702 15.8503 21.6289 15.8812 21.6392 15.9431C21.6564 16.0325 21.7183 16.029 21.8317 16.0084C21.9898 15.9809 22.8351 15.6028 22.8729 14.6781C22.9279 13.5094 21.8042 12.2237 19.8136 12.234L19.8146 12.2347ZM5.06153 17.2088C4.42937 17.8997 3.5425 18.161 3.16128 17.941C2.75222 17.7031 2.91378 16.6863 3.69375 15.95C4.16812 15.5031 4.77966 15.0906 5.18528 14.8362C5.27809 14.7812 5.41216 14.6987 5.57716 14.599C5.60466 14.5819 5.61841 14.575 5.61841 14.575C5.64934 14.5544 5.68372 14.5372 5.71809 14.5165C6.00306 15.5615 5.72841 16.4828 5.06153 17.2081V17.2088ZM9.68016 14.0669C9.46016 14.6066 8.99644 15.9816 8.71456 15.9094C8.47394 15.8475 8.32612 14.7991 8.66644 13.7679C8.83831 13.2488 9.20269 12.63 9.41925 12.3894C9.76609 12.001 10.1477 11.8772 10.237 12.0319C10.3573 12.2347 9.81766 13.73 9.68016 14.0669ZM13.4958 15.8888C13.403 15.9369 13.317 15.9679 13.2758 15.9438C13.2448 15.9266 13.3136 15.8613 13.3136 15.8613C13.3136 15.8613 13.7914 15.3491 13.9805 15.1154C14.0905 14.9779 14.2177 14.8163 14.3548 14.6375C14.3548 14.6547 14.3582 14.6719 14.3582 14.6925C14.3538 15.3079 13.7629 15.7238 13.4947 15.8888H13.4958ZM16.4376 15.2185C16.3688 15.1704 16.3792 15.0088 16.6095 14.5069C16.6988 14.311 16.9048 13.981 17.2626 13.6647C17.3031 13.7844 17.3251 13.9096 17.3279 14.036C17.3245 14.8094 16.771 15.0982 16.4379 15.2185H16.4376Z" fill="#2AC9BF"/>
  </g>
  <defs>
    <clipPath id="clip0_124_690">
      <rect width="22" height="22" fill="white" transform="translate(0.875)"/>
    </clipPath>
  </defs>
</svg>