<svg xmlns="http://www.w3.org/2000/svg" width="33" height="32" viewBox="0 0 33 32" fill="none">
  <path d="M19.97 21.25C19.7711 21.25 19.5803 21.329 19.4397 21.4697C19.299 21.6103 19.22 21.8011 19.22 22V28.67L16.89 27.255C16.7723 27.184 16.6375 27.1465 16.5 27.1465C16.3625 27.1465 16.2277 27.184 16.11 27.255L13.78 28.67V22C13.78 21.8011 13.701 21.6103 13.5603 21.4697C13.4197 21.329 13.2289 21.25 13.03 21.25C12.8311 21.25 12.6403 21.329 12.4997 21.4697C12.359 21.6103 12.28 21.8011 12.28 22V30C12.2785 30.1337 12.313 30.2654 12.3799 30.3811C12.4468 30.4969 12.5437 30.5925 12.6602 30.658C12.7768 30.7235 12.9089 30.7563 13.0426 30.7532C13.1763 30.75 13.3066 30.7109 13.42 30.64L16.5 28.77L19.58 30.64C19.697 30.7127 19.8322 30.7509 19.97 30.75C20.0687 30.7507 20.1665 30.7317 20.2578 30.6943C20.3491 30.6568 20.432 30.6016 20.5018 30.5318C20.5716 30.462 20.6268 30.3791 20.6643 30.2878C20.7017 30.1965 20.7207 30.0987 20.72 30V22C20.72 21.8011 20.641 21.6103 20.5003 21.4697C20.3597 21.329 20.1689 21.25 19.97 21.25ZM16.5 20.745C17.0933 20.745 17.6734 20.5691 18.1667 20.2394C18.6601 19.9098 19.0446 19.4412 19.2716 18.8931C19.4987 18.3449 19.5581 17.7417 19.4424 17.1597C19.3266 16.5778 19.0409 16.0432 18.6213 15.6237C18.2018 15.2041 17.6672 14.9184 17.0853 14.8026C16.5033 14.6869 15.9001 14.7463 15.3519 14.9734C14.8038 15.2004 14.3352 15.5849 14.0056 16.0783C13.6759 16.5716 13.5 17.1517 13.5 17.745C13.5 18.5407 13.8161 19.3037 14.3787 19.8663C14.9413 20.4289 15.7044 20.745 16.5 20.745ZM16.5 16.245C16.7967 16.245 17.0867 16.333 17.3334 16.4978C17.58 16.6626 17.7723 16.8969 17.8858 17.171C17.9993 17.4451 18.0291 17.7467 17.9712 18.0376C17.9133 18.3286 17.7704 18.5959 17.5607 18.8057C17.3509 19.0154 17.0836 19.1583 16.7926 19.2162C16.5017 19.2741 16.2001 19.2444 15.926 19.1308C15.6519 19.0173 15.4176 18.825 15.2528 18.5784C15.088 18.3317 15 18.0417 15 17.745C14.9974 17.5463 15.0342 17.3491 15.1084 17.1648C15.1826 16.9805 15.2927 16.8128 15.4322 16.6714C15.5718 16.53 15.738 16.4177 15.9213 16.3411C16.1046 16.2644 16.3013 16.225 16.5 16.225V16.245ZM13.855 6.75H19.145C19.3439 6.75 19.5347 6.67098 19.6753 6.53033C19.816 6.38968 19.895 6.19891 19.895 6C19.895 5.80109 19.816 5.61032 19.6753 5.46967C19.5347 5.32902 19.3439 5.25 19.145 5.25H13.855C13.6561 5.25 13.4653 5.32902 13.3247 5.46967C13.184 5.61032 13.105 5.80109 13.105 6C13.105 6.19891 13.184 6.38968 13.3247 6.53033C13.4653 6.67098 13.6561 6.75 13.855 6.75ZM26.5 8.37H6.5C6.30109 8.37 6.11032 8.44902 5.96967 8.58967C5.82902 8.73032 5.75 8.92109 5.75 9.12C5.75 9.31891 5.82902 9.50968 5.96967 9.65033C6.11032 9.79098 6.30109 9.87 6.5 9.87H26.5C26.6989 9.87 26.8897 9.79098 27.0303 9.65033C27.171 9.50968 27.25 9.31891 27.25 9.12C27.25 8.92109 27.171 8.73032 27.0303 8.58967C26.8897 8.44902 26.6989 8.37 26.5 8.37Z" fill="white"/>
  <path d="M30.5 1.25H2.5C2.30109 1.25 2.11032 1.32902 1.96967 1.46967C1.82902 1.61032 1.75 1.80109 1.75 2V22C1.75 22.1989 1.82902 22.3897 1.96967 22.5303C2.11032 22.671 2.30109 22.75 2.5 22.75H12.79C13.8607 23.5517 15.1624 23.985 16.5 23.985C17.8376 23.985 19.1393 23.5517 20.21 22.75H30.5C30.6989 22.75 30.8897 22.671 31.0303 22.5303C31.171 22.3897 31.25 22.1989 31.25 22V2C31.25 1.80109 31.171 1.61032 31.0303 1.46967C30.8897 1.32902 30.6989 1.25 30.5 1.25ZM11.755 17.75C11.756 16.8117 12.0351 15.8948 12.5571 15.1152C13.0791 14.3355 13.8205 13.7281 14.6876 13.3698C15.5548 13.0114 16.5087 12.9181 17.4288 13.1018C18.3489 13.2854 19.1939 13.7377 19.857 14.4015C20.5201 15.0653 20.9715 15.9108 21.1542 16.8311C21.3369 17.7514 21.2426 18.7052 20.8833 19.572C20.524 20.4387 19.9159 21.1795 19.1357 21.7007C18.3555 22.2218 17.4383 22.5 16.5 22.5C15.8754 22.4993 15.257 22.3755 14.6803 22.1356C14.1036 21.8956 13.5799 21.5443 13.1392 21.1017C12.6984 20.6591 12.3493 20.1339 12.1118 19.5562C11.8743 18.9785 11.753 18.3596 11.755 17.735V17.75ZM29.755 21.25H21.66C22.2998 20.3115 22.6715 19.2163 22.7352 18.0822C22.7988 16.9482 22.552 15.8183 22.0212 14.8141C21.4905 13.8099 20.6959 12.9694 19.723 12.3832C18.7502 11.797 17.6358 11.4873 16.5 11.4873C15.3642 11.4873 14.2498 11.797 13.277 12.3832C12.3041 12.9694 11.5095 13.8099 10.9788 14.8141C10.448 15.8183 10.2012 16.9482 10.2648 18.0822C10.3285 19.2163 10.7002 20.3115 11.34 21.25H3.25V2.75H29.75L29.755 21.25Z" fill="white"/>
</svg>