<svg xmlns="http://www.w3.org/2000/svg" width="23" height="22" viewBox="0 0 23 22" fill="none">
  <g clip-path="url(#clip0_124_728)">
    <path d="M11.125 2.0625C6.18789 2.0625 2.1875 6.06289 2.1875 11V12.7188C2.1875 13.2902 1.72773 13.75 1.15625 13.75C0.584766 13.75 0.125 13.2902 0.125 12.7188V11C0.125 4.92422 5.04922 0 11.125 0C17.2008 0 22.125 4.92422 22.125 11V17.1918C22.125 19.2801 20.432 20.973 18.3395 20.973L13.6 20.9688C13.2434 21.5832 12.5773 22 11.8125 22H10.4375C9.29883 22 8.375 21.0762 8.375 19.9375C8.375 18.7988 9.29883 17.875 10.4375 17.875H11.8125C12.5773 17.875 13.2434 18.2918 13.6 18.9062L18.3438 18.9105C19.2934 18.9105 20.0625 18.1414 20.0625 17.1918V11C20.0625 6.06289 16.0621 2.0625 11.125 2.0625ZM6.3125 8.9375H7C7.76055 8.9375 8.375 9.55195 8.375 10.3125V15.125C8.375 15.8855 7.76055 16.5 7 16.5H6.3125C4.7957 16.5 3.5625 15.2668 3.5625 13.75V11.6875C3.5625 10.1707 4.7957 8.9375 6.3125 8.9375ZM15.9375 8.9375C17.4543 8.9375 18.6875 10.1707 18.6875 11.6875V13.75C18.6875 15.2668 17.4543 16.5 15.9375 16.5H15.25C14.4895 16.5 13.875 15.8855 13.875 15.125V10.3125C13.875 9.55195 14.4895 8.9375 15.25 8.9375H15.9375Z" fill="#2AC9BF"/>
  </g>
  <defs>
    <clipPath id="clip0_124_728">
      <rect width="22" height="22" fill="white" transform="translate(0.125)"/>
    </clipPath>
  </defs>
</svg>