<svg xmlns="http://www.w3.org/2000/svg" width="25" height="32" viewBox="0 0 25 32" fill="none">
  <path d="M23.6124 6.64175L17.5859 0.940375C16.9449 0.333937 16.1059 0 15.2236 0H3.75C1.85456 0 0.3125 1.54206 0.3125 3.4375V28.5625C0.3125 30.4579 1.85456 32 3.75 32H21.25C23.1454 32 24.6875 30.4579 24.6875 28.5625V9.13888C24.6875 8.19831 24.2956 7.28813 23.6124 6.64175ZM21.7913 7.5H17.125C16.9527 7.5 16.8125 7.35981 16.8125 7.1875V2.78975L21.7913 7.5ZM21.25 30.125H3.75C2.88844 30.125 2.1875 29.4241 2.1875 28.5625V3.4375C2.1875 2.57594 2.88844 1.875 3.75 1.875H14.9375V7.1875C14.9375 8.39369 15.9188 9.375 17.125 9.375H22.8125V28.5625C22.8125 29.4241 22.1116 30.125 21.25 30.125Z" fill="white"/>
  <path d="M19.1875 12.5H5.4375C4.91975 12.5 4.5 12.9197 4.5 13.4375C4.5 13.9553 4.91975 14.375 5.4375 14.375H19.1875C19.7052 14.375 20.125 13.9553 20.125 13.4375C20.125 12.9197 19.7052 12.5 19.1875 12.5ZM19.1875 17.5H5.4375C4.91975 17.5 4.5 17.9198 4.5 18.4375C4.5 18.9552 4.91975 19.375 5.4375 19.375H19.1875C19.7052 19.375 20.125 18.9552 20.125 18.4375C20.125 17.9198 19.7052 17.5 19.1875 17.5ZM9.9825 22.5H5.4375C4.91975 22.5 4.5 22.9198 4.5 23.4375C4.5 23.9552 4.91975 24.375 5.4375 24.375H9.9825C10.5002 24.375 10.92 23.9552 10.92 23.4375C10.92 22.9198 10.5002 22.5 9.9825 22.5Z" fill="white"/>
</svg>