<svg xmlns="http://www.w3.org/2000/svg" width="20" height="22" viewBox="0 0 20 22" fill="none">
  <g clip-path="url(#clip0_124_732)">
    <path d="M14.8461 3.72114C15.3833 3.18403 15.3833 2.31177 14.8461 1.77466C14.309 1.23755 13.4368 1.23755 12.8997 1.77466L7.00005 7.67856L4.53364 5.21216C3.99653 4.67505 3.12427 4.67505 2.58716 5.21216C2.05005 5.74927 2.05005 6.62153 2.58716 7.15864L6.02466 10.5961C6.56177 11.1333 7.43403 11.1333 7.97114 10.5961L14.8461 3.72114ZM18.9711 9.22114C19.5083 8.68403 19.5083 7.81177 18.9711 7.27466C18.434 6.73755 17.5618 6.73755 17.0247 7.27466L7.00005 17.3036L2.47114 12.779C1.93403 12.2418 1.06177 12.2418 0.524658 12.779C-0.0124512 13.3161 -0.0124512 14.1883 0.524658 14.7254L6.02466 20.2254C6.56177 20.7626 7.43403 20.7626 7.97114 20.2254L18.9711 9.22544V9.22114Z" fill="#2AC9BF"/>
  </g>
  <defs>
    <clipPath id="clip0_124_732">
      <rect width="19.25" height="22" fill="white" transform="translate(0.125)"/>
    </clipPath>
  </defs>
</svg>