<svg xmlns="http://www.w3.org/2000/svg" width="33" height="26" viewBox="0 0 33 26" fill="none">
  <path d="M30.75 0H2.25C1.78603 0.000512831 1.34121 0.185052 1.01313 0.513129C0.685052 0.841207 0.500513 1.28603 0.5 1.75L0.5 20.25C0.500513 20.714 0.685052 21.1588 1.01313 21.4869C1.34121 21.8149 1.78603 21.9995 2.25 22H12.5V23.5H11C10.8674 23.5 10.7402 23.5527 10.6464 23.6464C10.5527 23.7402 10.5 23.8674 10.5 24V25.5C10.5 25.6326 10.5527 25.7598 10.6464 25.8536C10.7402 25.9473 10.8674 26 11 26H22C22.1326 26 22.2598 25.9473 22.3536 25.8536C22.4473 25.7598 22.5 25.6326 22.5 25.5V24C22.5 23.8674 22.4473 23.7402 22.3536 23.6464C22.2598 23.5527 22.1326 23.5 22 23.5H20.5V22H30.75C31.214 21.9995 31.6588 21.8149 31.9869 21.4869C32.3149 21.1588 32.4995 20.714 32.5 20.25V1.75C32.4995 1.28603 32.3149 0.841207 31.9869 0.513129C31.6588 0.185052 31.214 0.000512831 30.75 0ZM21.5 24.5V25H11.5V24.5H21.5ZM13.5 23.5V22H19.5V23.5H13.5ZM31.5 20.25C31.4998 20.4489 31.4208 20.6395 31.2801 20.7801C31.1395 20.9208 30.9489 20.9998 30.75 21H2.25C2.05114 20.9998 1.86047 20.9208 1.71985 20.7801C1.57924 20.6395 1.50017 20.4489 1.5 20.25V19.5H31.5V20.25ZM31.5 18.5H1.5V1.75C1.50017 1.55114 1.57924 1.36047 1.71985 1.21985C1.86047 1.07924 2.05114 1.00017 2.25 1H30.75C30.9489 1.00017 31.1395 1.07924 31.2801 1.21985C31.4208 1.36047 31.4998 1.55114 31.5 1.75V18.5Z" fill="white"/>
</svg>