<svg xmlns="http://www.w3.org/2000/svg" width="14" height="14" viewBox="0 0 14 14" fill="none">
  <path d="M13.7437 7.61872L10.6436 10.7189C10.4727 10.8898 10.2488 10.9752 10.0248 10.9752C9.80088 10.9752 9.57696 10.8898 9.40609 10.7189C9.0644 10.3772 9.0644 9.82317 9.40609 9.48146L11.0126 7.87501H0.875C0.391754 7.87501 0 7.48326 0 7.00001C0 6.51677 0.391754 6.12501 0.875 6.12501H11.0126L9.40609 4.51857C9.0644 4.17685 9.0644 3.62284 9.40609 3.28113C9.74783 2.93941 10.3018 2.93941 10.6436 3.28113L13.7437 6.38131C14.0854 6.72299 14.0854 7.27703 13.7437 7.61872Z" fill="#2AC9BF"/>
</svg>