<svg xmlns="http://www.w3.org/2000/svg" width="21" height="21" viewBox="0 0 21 21" fill="none">
  <g clip-path="url(#clip0_102_530)">
    <path d="M20.5 9.11116V9.66671C20.5 10.127 20.1269 10.5 19.6667 10.5H19.3889L18.4822 16.8468C18.3649 17.6679 17.6617 18.2778 16.8323 18.2778H4.16771C3.3383 18.2778 2.6351 17.6679 2.51778 16.8468L1.61111 10.5H1.33333C0.87309 10.5 0.5 10.127 0.5 9.66671V9.11116C0.5 8.65091 0.87309 8.27782 1.33333 8.27782H3.67156L7.3792 3.17987C7.74014 2.68362 8.435 2.57386 8.93132 2.9348C9.4276 3.29574 9.53733 3.99063 9.17639 4.48692L6.41934 8.27782H14.5807L11.8236 4.48688C11.4627 3.99063 11.5724 3.2957 12.0687 2.93477C12.5649 2.57383 13.2599 2.68355 13.6208 3.17984L17.3284 8.27782H19.6667C20.1269 8.27782 20.5 8.65091 20.5 9.11116ZM11.3333 15.2223V11.3334C11.3333 10.8731 10.9602 10.5 10.5 10.5C10.0398 10.5 9.66667 10.8731 9.66667 11.3334V15.2223C9.66667 15.6825 10.0398 16.0556 10.5 16.0556C10.9602 16.0556 11.3333 15.6825 11.3333 15.2223ZM15.2222 15.2223V11.3334C15.2222 10.8731 14.8491 10.5 14.3889 10.5C13.9286 10.5 13.5556 10.8731 13.5556 11.3334V15.2223C13.5556 15.6825 13.9286 16.0556 14.3889 16.0556C14.8491 16.0556 15.2222 15.6825 15.2222 15.2223ZM7.44444 15.2223V11.3334C7.44444 10.8731 7.07135 10.5 6.61111 10.5C6.15087 10.5 5.77778 10.8731 5.77778 11.3334V15.2223C5.77778 15.6825 6.15087 16.0556 6.61111 16.0556C7.07135 16.0556 7.44444 15.6825 7.44444 15.2223Z" fill="white"/>
  </g>
  <defs>
    <clipPath id="clip0_102_530">
      <rect width="20" height="20" fill="white" transform="translate(0.5 0.5)"/>
    </clipPath>
  </defs>
</svg>