<svg xmlns="http://www.w3.org/2000/svg" width="15" height="15" viewBox="0 0 15 15" fill="none">
  <path d="M15 7.5C15 11.6421 11.6421 15 7.5 15C3.35786 15 0 11.6421 0 7.5C0 3.35786 3.35786 0 7.5 0C11.6421 0 15 3.35786 15 7.5Z" fill="#2F3A3B"/>
  <path d="M10 8.66429L7.85715 7.95V3.92857C7.85715 3.83385 7.81952 3.74301 7.75255 3.67603C7.68557 3.60906 7.59473 3.57143 7.50001 3.57143C7.40529 3.57143 7.31445 3.60906 7.24747 3.67603C7.18049 3.74301 7.14287 3.83385 7.14287 3.92857V8.21428C7.14233 8.28881 7.1656 8.36156 7.20928 8.42194C7.25296 8.48232 7.31477 8.52719 7.38572 8.55L9.75715 9.34286C9.79488 9.35036 9.83371 9.35036 9.87144 9.34286C9.94658 9.34181 10.0195 9.31708 10.0798 9.27219C10.14 9.22731 10.1846 9.16455 10.2072 9.09286C10.233 9.00846 10.2261 8.91741 10.1877 8.83794C10.1492 8.75846 10.0822 8.69644 10 8.66429Z" fill="white"/>
</svg>