<svg xmlns="http://www.w3.org/2000/svg" width="16" height="16" viewBox="0 0 16 16" fill="none">
  <g clip-path="url(#clip0_102_70)">
    <path d="M1.6 0.53334H14.4C15.2672 0.53334 16 1.26614 16 2.13334V10.9333C16 11.8005 15.2672 12.5333 14.4 12.5333H6.78453L4.19733 15.3795C4.16105 15.4192 4.11362 15.4471 4.06124 15.4595C4.00886 15.4719 3.95397 15.4681 3.90373 15.4488C3.85354 15.4294 3.8104 15.3952 3.77999 15.3508C3.74957 15.3064 3.73331 15.2538 3.73333 15.2V12.5333H1.6C0.7328 12.5333 0 11.8005 0 10.9333V2.13334C0 1.26614 0.7328 0.53334 1.6 0.53334Z" fill="#2F3A3B" fill-opacity="0.7"/>
  </g>
  <defs>
    <clipPath id="clip0_102_70">
      <rect width="16" height="16" fill="white"/>
    </clipPath>
  </defs>
</svg>