<svg xmlns="http://www.w3.org/2000/svg" width="15" height="15" viewBox="0 0 15 15" fill="none">
  <g clip-path="url(#clip0_102_512)">
    <path d="M4.70704 7.5C4.70704 6.85796 4.72992 6.21478 4.77524 5.58592H0.245654C0.0839063 6.20309 0 6.84507 0 7.5C0 8.15493 0.0839063 8.79691 0.245654 9.41408H4.77522C4.72992 8.78522 4.70704 8.14204 4.70704 7.5ZM5.58595 7.5C5.58595 8.1547 5.60962 8.79642 5.6555 9.41408H9.3445C9.39038 8.79642 9.41405 8.1547 9.41405 7.5C9.41405 6.84533 9.39038 6.20358 9.3445 5.58592H5.6555C5.60962 6.20358 5.58595 6.84533 5.58595 7.5ZM14.7543 5.58592H10.2248C10.2701 6.21478 10.293 6.85796 10.293 7.5C10.293 8.14204 10.2701 8.78522 10.2248 9.41408H14.7543C14.9161 8.79691 15 8.15493 15 7.5C15 6.84507 14.9161 6.20309 14.7543 5.58592ZM5.73762 10.293C5.85117 11.2944 6.02654 12.2112 6.25714 12.9891C6.66894 14.3782 7.17809 15 7.5 15C7.82191 15 8.33106 14.3782 8.74286 12.9891C8.97346 12.2112 9.14883 11.2943 9.26238 10.293H5.73762ZM9.26238 4.70701C9.14883 3.70562 8.97346 2.78877 8.74286 2.01085C8.33106 0.621768 7.82191 0 7.5 0C7.17809 0 6.66894 0.621768 6.25714 2.01085C6.02654 2.7888 5.85117 3.70564 5.73762 4.70701H9.26238ZM14.4643 4.70701C14.092 3.77821 13.5322 2.92556 12.8033 2.19668C11.7236 1.11694 10.3724 0.407461 8.90379 0.130869C9.52383 1.14425 9.94072 2.82214 10.1455 4.70698H14.4643V4.70701ZM8.90379 14.8691C10.3724 14.5925 11.7236 13.8831 12.8033 12.8033C13.5322 12.0744 14.092 11.2218 14.4643 10.293H10.1455C9.94072 12.1778 9.52383 13.8557 8.90379 14.8691ZM0.535664 10.293C0.907969 11.2218 1.46783 12.0744 2.19668 12.8033C3.27645 13.8831 4.62759 14.5925 6.09618 14.8691C5.47614 13.8558 5.05928 12.1779 4.85446 10.293L0.535664 10.293ZM6.09618 0.130898C4.62759 0.407461 3.27645 1.11694 2.19668 2.19671C1.46783 2.92559 0.907969 3.77821 0.535664 4.70704H4.85446C5.05928 2.82217 5.47614 1.14428 6.09618 0.130898Z" fill="#2F3A3B"/>
  </g>
  <defs>
    <clipPath id="clip0_102_512">
      <rect width="15" height="15" fill="white"/>
    </clipPath>
  </defs>
</svg>