<svg xmlns="http://www.w3.org/2000/svg" width="16" height="16" viewBox="0 0 16 16" fill="none">
  <g clip-path="url(#clip0_102_78)">
    <path d="M8 0C3.58853 0 0 3.58887 0 8C0 12.4111 3.58853 16 8 16C12.4115 16 16 12.4111 16 8C16 3.58887 12.4115 0 8 0ZM11.1803 8.28028L6.51369 11.2803C6.45994 11.315 6.39732 11.3334 6.33334 11.3333C6.27866 11.3333 6.22331 11.3197 6.17384 11.2927C6.12121 11.264 6.07729 11.2217 6.04669 11.1702C6.01609 11.1187 5.99996 11.0599 6 11V5C6 4.87794 6.06641 4.76594 6.17384 4.70734C6.27931 4.64941 6.41147 4.65297 6.51369 4.71972L11.1803 7.71972C11.2754 7.78091 11.3333 7.88672 11.3333 8C11.3333 8.11328 11.2754 8.21906 11.1803 8.28028Z" fill="#2F3A3B" fill-opacity="0.6"/>
  </g>
  <defs>
    <clipPath id="clip0_102_78">
      <rect width="16" height="16" fill="white"/>
    </clipPath>
  </defs>
</svg>