<svg width="16" height="16" viewBox="0 0 16 16" fill="none" xmlns="http://www.w3.org/2000/svg">
<rect width="16" height="16" rx="8" fill="#2F3A3B"/>
<path d="M7.74721 10.0629C7.58633 10.0629 7.45622 9.93333 7.45622 9.77312C7.45622 9.39409 7.51021 9.06667 7.61764 8.7914C7.69646 8.58387 7.82441 8.37473 8.00041 8.16344C8.12998 8.00968 8.36212 7.78495 8.69792 7.49032C9.03372 7.19516 9.25182 6.96022 9.35278 6.78495C9.45373 6.60968 9.5034 6.41828 9.5034 6.21075C9.5034 5.83495 9.35602 5.50538 9.06179 5.22097C8.76756 4.93656 8.40639 4.79462 7.97881 4.79462C7.56581 4.79462 7.22084 4.92366 6.94443 5.18118C6.74251 5.36935 6.59081 5.63495 6.4904 5.97796C6.42129 6.21344 6.19077 6.36398 5.94621 6.33495C5.63632 6.29839 5.43225 5.99301 5.52079 5.69462C5.65684 5.23602 5.88466 4.86667 6.20373 4.58602C6.64696 4.19516 7.23325 4 7.96262 4C8.73463 4 9.35062 4.20914 9.81059 4.62796C10.2706 5.04677 10.5 5.55269 10.5 6.14624C10.5 6.48978 10.419 6.80645 10.2576 7.0957C10.0962 7.38548 9.77982 7.73763 9.30959 8.15269C8.99377 8.43172 8.787 8.63763 8.68982 8.76989C8.59264 8.90215 8.52084 9.0543 8.47441 9.22581C8.43986 9.35323 8.41611 9.54032 8.40315 9.78602C8.39505 9.94086 8.26602 10.0624 8.11054 10.0624H7.74721V10.0629ZM7.40223 11.45C7.40223 11.1462 7.64949 10.9 7.95452 10.9C8.25955 10.9 8.50681 11.1462 8.50681 11.45C8.50681 11.7538 8.25955 12 7.95452 12C7.64949 12 7.40223 11.7538 7.40223 11.45Z" fill="white"/>
</svg>
