<svg xmlns="http://www.w3.org/2000/svg" width="15" height="15" viewBox="0 0 15 15" fill="none">
  <g clip-path="url(#clip0_102_508)">
    <path d="M11.7001 0.79834H7.0946C6.8029 0.79844 6.52318 0.914363 6.31693 1.12063L0.32215 7.1143C-0.107383 7.54384 -0.107383 8.24011 0.32215 8.67019L4.92768 13.2757C5.35721 13.7053 6.05348 13.7053 6.48302 13.2757L12.4778 7.28205C12.684 7.07525 12.8001 6.79532 12.8001 6.50328V1.8983C12.8001 1.29057 12.3078 0.79834 11.7001 0.79834ZM9.7752 4.6482C9.31981 4.6482 8.95023 4.27861 8.95023 3.82323C8.95023 3.36784 9.31981 2.99826 9.7752 2.99826C10.2306 2.99826 10.6002 3.36784 10.6002 3.82323C10.6002 4.27861 10.2306 4.6482 9.7752 4.6482Z" fill="#2F3A3B"/>
    <path d="M13.9 1.89832L13.8994 7.01807C13.8994 7.14374 13.8747 7.26818 13.8266 7.38426C13.7784 7.50034 13.7079 7.60578 13.6189 7.69455L7.52734 13.7861L7.62084 13.8796C8.05037 14.3091 8.74665 14.3091 9.17618 13.8796L14.6771 8.37982C14.7794 8.2778 14.8606 8.15659 14.916 8.02315C14.9714 7.8897 14.9999 7.74664 14.9999 7.60215V2.99827C14.9999 2.39055 14.5077 1.89832 13.9 1.89832Z" fill="#2F3A3B"/>
  </g>
  <defs>
    <clipPath id="clip0_102_508">
      <rect width="15" height="15" fill="white"/>
    </clipPath>
  </defs>
</svg>