<svg xmlns="http://www.w3.org/2000/svg" width="24" height="24" viewBox="0 0 24 24" fill="none">
  <path d="M18.7202 1.27728H11.3514C10.8846 1.27744 10.4371 1.46292 10.1071 1.79294L0.515441 11.3828C-0.171814 12.0701 -0.171814 13.1841 0.515441 13.8722L7.88428 21.2411C8.57154 21.9283 9.68558 21.9283 10.3728 21.2411L19.9645 11.6512C20.2945 11.3203 20.4801 10.8724 20.4801 10.4052V3.03722C20.4801 2.06485 19.6926 1.27728 18.7202 1.27728ZM15.6403 7.43705C14.9117 7.43705 14.3204 6.84571 14.3204 6.1171C14.3204 5.38849 14.9117 4.79715 15.6403 4.79715C16.3689 4.79715 16.9603 5.38849 16.9603 6.1171C16.9603 6.84571 16.3689 7.43705 15.6403 7.43705Z" fill="#2F3A3B"/>
  <path d="M22.2401 3.03723L22.2392 11.2288C22.2393 11.4299 22.1997 11.629 22.1227 11.8147C22.0457 12.0005 21.9328 12.1692 21.7905 12.3112L12.0439 22.0577L12.1935 22.2073C12.8808 22.8946 13.9948 22.8946 14.6821 22.2073L23.4835 13.4076C23.6472 13.2444 23.7771 13.0505 23.8657 12.837C23.9544 12.6234 24 12.3945 24.0001 12.1634V4.79717C24.0001 3.8248 23.2125 3.03723 22.2401 3.03723Z" fill="#2F3A3B"/>
</svg>