<svg xmlns="http://www.w3.org/2000/svg" width="25" height="26" viewBox="0 0 25 26" fill="none">
  <g clip-path="url(#clip0_102_637)">
    <path d="M19.8145 23.9521C19.1504 24.6602 17.373 25.5 15.0586 25.5C9.16016 25.5 7.88086 21.1641 7.88086 18.6348V11.6035H5.56152C5.29297 11.6035 5.07324 11.3838 5.07324 11.1152V7.79492C5.07324 7.44336 5.29297 7.13086 5.625 7.01367C8.65234 5.94922 9.60449 3.30273 9.74121 1.2959C9.78027 0.758789 10.0586 0.5 10.5273 0.5H13.9893C14.2578 0.5 14.4775 0.719727 14.4775 0.988281V6.61328H18.5303C18.7988 6.61328 19.0186 6.82813 19.0186 7.09668V11.0859C19.0186 11.3545 18.7988 11.5742 18.5303 11.5742H14.458V18.0781C14.458 19.748 15.6152 20.6953 17.7783 19.8262C18.0127 19.7334 18.2178 19.6699 18.3984 19.7188C18.5693 19.7627 18.6816 19.8848 18.7598 20.1045L19.834 23.2441C19.9219 23.4883 19.9951 23.7617 19.8145 23.9521Z" fill="#9B9B9B"/>
  </g>
  <defs>
    <clipPath id="clip0_102_637">
      <rect width="25" height="25" fill="white" transform="translate(0 0.5)"/>
    </clipPath>
  </defs>
</svg>