<svg xmlns="http://www.w3.org/2000/svg" width="25" height="26" viewBox="0 0 25 26" fill="none">
  <path d="M22.4302 7.90803C22.446 8.1301 22.446 8.35222 22.446 8.57429C22.446 15.3477 17.2906 23.1523 7.86802 23.1523C4.96509 23.1523 2.26841 22.3115 0 20.8522C0.412451 20.8998 0.808984 20.9156 1.2373 20.9156C3.63257 20.9156 5.83755 20.1067 7.59834 18.7266C5.3458 18.679 3.45811 17.2037 2.80771 15.1733C3.125 15.2208 3.44224 15.2526 3.77539 15.2526C4.2354 15.2526 4.69546 15.1891 5.12373 15.0781C2.77603 14.6022 1.01519 12.54 1.01519 10.0495V9.98611C1.69727 10.3668 2.49048 10.6048 3.33115 10.6364C1.95107 9.71638 1.04692 8.14597 1.04692 6.36931C1.04692 5.41755 1.30068 4.54509 1.74487 3.78367C4.26709 6.8928 8.05835 8.92322 12.3096 9.14534C12.2303 8.76462 12.1827 8.36809 12.1827 7.97151C12.1827 5.14788 14.4669 2.84778 17.3064 2.84778C18.7816 2.84778 20.1141 3.46643 21.05 4.4658C22.208 4.24373 23.3184 3.81541 24.302 3.22849C23.9212 4.41824 23.1122 5.4176 22.0494 6.05208C23.0805 5.94109 24.0799 5.65549 24.9999 5.25896C24.302 6.27415 23.4295 7.1783 22.4302 7.90803Z" fill="#9B9B9B"/>
</svg>