<svg xmlns="http://www.w3.org/2000/svg" width="24" height="25" viewBox="0 0 24 25" fill="none">
  <path d="M10.7555 5.47626L3.76885 17.5766C3.64265 17.7951 3.5762 18.043 3.57617 18.2953C3.57615 18.5477 3.64256 18.7956 3.76872 19.0141C3.89488 19.2326 4.07635 19.4141 4.29489 19.5403C4.51343 19.6664 4.76132 19.7328 5.01366 19.7328H18.9858C19.2381 19.7328 19.486 19.6664 19.7046 19.5403C19.9231 19.4141 20.1046 19.2326 20.2307 19.0141C20.3569 18.7956 20.4233 18.5477 20.4233 18.2953C20.4233 18.043 20.3568 17.7951 20.2306 17.5766L13.2447 5.47626C13.1186 5.25778 12.9372 5.07636 12.7187 4.95023C12.5002 4.82409 12.2524 4.75769 12.0001 4.75769C11.7478 4.75769 11.5 4.82409 11.2815 4.95023C11.063 5.07636 10.8816 5.25778 10.7555 5.47626Z" fill="#B39F70"/>
  <path d="M12.0914 9.20825H11.9091C11.4604 9.20825 11.0967 9.57199 11.0967 10.0207V13.904C11.0967 14.3527 11.4604 14.7164 11.9091 14.7164H12.0914C12.5401 14.7164 12.9038 14.3527 12.9038 13.904V10.0207C12.9038 9.57199 12.5401 9.20825 12.0914 9.20825Z" fill="white"/>
  <path d="M12.0002 17.7963C12.4993 17.7963 12.9038 17.3917 12.9038 16.8927C12.9038 16.3937 12.4993 15.9891 12.0002 15.9891C11.5012 15.9891 11.0967 16.3937 11.0967 16.8927C11.0967 17.3917 11.5012 17.7963 12.0002 17.7963Z" fill="white"/>
</svg>