<svg xmlns="http://www.w3.org/2000/svg" width="24" height="24" viewBox="0 0 24 24" fill="none">
  <path d="M11.9999 1.92004C10.0063 1.92004 8.05743 2.51123 6.39978 3.61883C4.74213 4.72643 3.45015 6.30072 2.68722 8.14259C1.92429 9.98447 1.72467 12.0112 2.11361 13.9666C2.50255 15.9219 3.46258 17.718 4.87229 19.1277C6.282 20.5374 8.07809 21.4974 10.0334 21.8864C11.9887 22.2753 14.0155 22.0757 15.8574 21.3127C17.6993 20.5498 19.2735 19.2578 20.3811 17.6002C21.4887 15.9425 22.0799 13.9937 22.0799 12C22.0774 9.32744 21.0146 6.76503 19.1248 4.87521C17.2349 2.9854 14.6725 1.92259 11.9999 1.92004ZM11.9999 21.12C10.1962 21.12 8.4329 20.5852 6.93313 19.583C5.43335 18.5809 4.26442 17.1566 3.57415 15.4901C2.88387 13.8237 2.70327 11.9899 3.05516 10.2208C3.40706 8.45171 4.27566 6.82668 5.55111 5.55123C6.82657 4.27577 8.4516 3.40718 10.2207 3.05528C11.9898 2.70339 13.8235 2.88399 15.49 3.57426C17.1565 4.26453 18.5808 5.43347 19.5829 6.93324C20.585 8.43302 21.1199 10.1963 21.1199 12C21.1174 14.418 20.1557 16.7363 18.4459 18.4461C16.7362 20.1558 14.4179 21.1175 11.9999 21.12Z" fill="#2AC9BF"/>
  <path d="M15.36 12.6048L12.48 11.6448V6.24001C12.48 6.11271 12.4295 5.99062 12.3394 5.9006C12.2494 5.81058 12.1273 5.76001 12 5.76001C11.8727 5.76001 11.7506 5.81058 11.6606 5.9006C11.5706 5.99062 11.52 6.11271 11.52 6.24001V12C11.5193 12.1002 11.5506 12.1979 11.6093 12.2791C11.668 12.3603 11.7511 12.4206 11.8464 12.4512L15.0336 13.5168C15.0843 13.5269 15.1365 13.5269 15.1872 13.5168C15.2882 13.5154 15.3862 13.4822 15.4672 13.4218C15.5482 13.3615 15.6081 13.2772 15.6384 13.1808C15.6732 13.0674 15.6639 12.945 15.6122 12.8382C15.5606 12.7314 15.4705 12.648 15.36 12.6048Z" fill="#2AC9BF"/>
</svg>