<svg xmlns="http://www.w3.org/2000/svg" width="24" height="24" viewBox="0 0 24 24" fill="none">
  <path d="M5 23C2.91 23 1.5 21.53 1.085 18.96C1.03779 18.6283 1.05772 18.2906 1.14362 17.9667C1.22951 17.6429 1.37961 17.3397 1.585 17.075L1.665 17L4.7 14.6C5.15861 14.2566 5.72125 14.0812 6.29375 14.103C6.86626 14.1249 7.41389 14.3427 7.845 14.72L9.155 15.96C11.885 15.34 15.805 11.8 16 9.19001L14.705 7.82501C14.3338 7.39174 14.122 6.84453 14.1047 6.27426C14.0874 5.704 14.2657 5.14497 14.61 4.69001L17 1.66501C17.0249 1.63176 17.0554 1.60302 17.09 1.58001C17.3541 1.37527 17.6565 1.22553 17.9794 1.13965C18.3023 1.05377 18.6391 1.03349 18.97 1.08001C21.53 1.50001 23 2.91001 23 5.00001C23 9.77391 21.1036 14.3523 17.7279 17.7279C14.3523 21.1036 9.7739 23 5 23ZM18.81 2.07501C18.7384 2.07005 18.6666 2.07005 18.595 2.07501C18.2869 2.07618 17.9866 2.1722 17.735 2.35001L15.4 5.30001C15.1971 5.56987 15.0911 5.90029 15.0993 6.23783C15.1074 6.57538 15.2293 6.90029 15.445 7.16001L16.865 8.66001C16.9513 8.75222 16.9996 8.8737 17 9.00001C17 12.22 12.355 16.45 9.08 17C9.00393 17.0126 8.92599 17.0074 8.85226 16.9848C8.77853 16.9623 8.71102 16.923 8.655 16.87L7.155 15.465C6.89718 15.2451 6.5725 15.119 6.23384 15.1072C5.89518 15.0954 5.56251 15.1986 5.29 15.4L2.315 17.74C2.09071 18.0504 1.99734 18.4364 2.055 18.815C2.3 20.265 3 22 5 22C9.50868 22 13.8327 20.2089 17.0208 17.0208C20.2089 13.8327 22 9.50869 22 5.00001C22 3.00001 20.265 2.30001 18.81 2.07501Z" fill="#2AC9BF"/>
</svg>