<svg xmlns="http://www.w3.org/2000/svg" width="15" height="15" viewBox="0 0 15 15" fill="none">
  <path d="M1.875 4.375H10.625V5C10.625 5.16576 10.6908 5.32473 10.8081 5.44194C10.9253 5.55915 11.0842 5.625 11.25 5.625C11.4158 5.625 11.5747 5.55915 11.6919 5.44194C11.8092 5.32473 11.875 5.16576 11.875 5V4.375H13.125C13.2908 4.375 13.4497 4.30915 13.5669 4.19194C13.6842 4.07473 13.75 3.91576 13.75 3.75C13.75 3.58424 13.6842 3.42527 13.5669 3.30806C13.4497 3.19085 13.2908 3.125 13.125 3.125H11.875V2.5C11.875 2.33424 11.8092 2.17527 11.6919 2.05806C11.5747 1.94085 11.4158 1.875 11.25 1.875C11.0842 1.875 10.9253 1.94085 10.8081 2.05806C10.6908 2.17527 10.625 2.33424 10.625 2.5V3.125H1.875C1.70924 3.125 1.55027 3.19085 1.43306 3.30806C1.31585 3.42527 1.25 3.58424 1.25 3.75C1.25 3.91576 1.31585 4.07473 1.43306 4.19194C1.55027 4.30915 1.70924 4.375 1.875 4.375ZM13.125 6.875H8.125V6.25C8.125 6.08424 8.05915 5.92527 7.94194 5.80806C7.82473 5.69085 7.66576 5.625 7.5 5.625C7.33424 5.625 7.17527 5.69085 7.05806 5.80806C6.94085 5.92527 6.875 6.08424 6.875 6.25V6.875H1.875C1.70924 6.875 1.55027 6.94085 1.43306 7.05806C1.31585 7.17527 1.25 7.33424 1.25 7.5C1.25 7.66576 1.31585 7.82473 1.43306 7.94194C1.55027 8.05915 1.70924 8.125 1.875 8.125H6.875V8.75C6.875 8.91576 6.94085 9.07473 7.05806 9.19194C7.17527 9.30915 7.33424 9.375 7.5 9.375C7.66576 9.375 7.82473 9.30915 7.94194 9.19194C8.05915 9.07473 8.125 8.91576 8.125 8.75V8.125H13.125C13.2908 8.125 13.4497 8.05915 13.5669 7.94194C13.6842 7.82473 13.75 7.66576 13.75 7.5C13.75 7.33424 13.6842 7.17527 13.5669 7.05806C13.4497 6.94085 13.2908 6.875 13.125 6.875ZM13.125 10.625H11.875V10C11.875 9.83424 11.8092 9.67527 11.6919 9.55806C11.5747 9.44085 11.4158 9.375 11.25 9.375C11.0842 9.375 10.9253 9.44085 10.8081 9.55806C10.6908 9.67527 10.625 9.83424 10.625 10V10.625H1.875C1.70924 10.625 1.55027 10.6908 1.43306 10.8081C1.31585 10.9253 1.25 11.0842 1.25 11.25C1.25 11.4158 1.31585 11.5747 1.43306 11.6919C1.55027 11.8092 1.70924 11.875 1.875 11.875H10.625V12.5C10.625 12.6658 10.6908 12.8247 10.8081 12.9419C10.9253 13.0592 11.0842 13.125 11.25 13.125C11.4158 13.125 11.5747 13.0592 11.6919 12.9419C11.8092 12.8247 11.875 12.6658 11.875 12.5V11.875H13.125C13.2908 11.875 13.4497 11.8092 13.5669 11.6919C13.6842 11.5747 13.75 11.4158 13.75 11.25C13.75 11.0842 13.6842 10.9253 13.5669 10.8081C13.4497 10.6908 13.2908 10.625 13.125 10.625Z" fill="#9B9B9B"/>
</svg>