<svg xmlns="http://www.w3.org/2000/svg" width="16" height="14" viewBox="0 0 16 14" fill="none">
  <path d="M11.1641 0.437988C10.5708 0.438678 9.98402 0.5609 9.43983 0.797116C8.89565 1.03333 8.40563 1.37853 8 1.81143C7.40556 1.177 6.63413 0.735921 5.78584 0.545454C4.93756 0.354988 4.05161 0.423929 3.24301 0.743328C2.4344 1.06273 1.74049 1.61783 1.25135 2.33658C0.762204 3.05533 0.500428 3.90452 0.5 4.77393C0.5 9.09111 7.46328 13.3286 7.76562 13.495C7.83853 13.5388 7.92198 13.562 8.00703 13.562C8.09208 13.562 8.17553 13.5388 8.24844 13.495C8.53672 13.3286 15.5 9.09111 15.5 4.77393C15.4988 3.62434 15.0415 2.5222 14.2287 1.70933C13.4158 0.896448 12.3136 0.439229 11.1641 0.437988ZM8 12.5411C6.78828 11.7677 1.4375 8.15361 1.4375 4.77393C1.4381 4.05204 1.66856 3.34909 2.09547 2.76697C2.52239 2.18485 3.12358 1.75379 3.81191 1.53627C4.50025 1.31875 5.23997 1.32607 5.92387 1.55716C6.60777 1.78826 7.20031 2.23113 7.61563 2.82158C7.65889 2.883 7.71629 2.93312 7.78298 2.96771C7.84967 3.00231 7.9237 3.02037 7.99883 3.02037C8.07396 3.02037 8.14798 3.00231 8.21467 2.96771C8.28136 2.93312 8.33876 2.883 8.38203 2.82158C8.797 2.23011 9.38968 1.78629 10.074 1.55454C10.7584 1.32279 11.4988 1.31519 12.1877 1.53282C12.8767 1.75046 13.4784 2.18201 13.9054 2.76483C14.3324 3.34765 14.5626 4.0514 14.5625 4.77393C14.5625 8.15127 9.21172 11.7653 8 12.5411Z" fill="#2AC9BF"/>
</svg>