<svg xmlns="http://www.w3.org/2000/svg" width="12" height="12" viewBox="0 0 12 12" fill="none">
  <path d="M5.99998 9.5C5.90067 9.50058 5.80343 9.47157 5.72067 9.41667C5.63791 9.36177 5.57338 9.28346 5.53529 9.19174C5.49721 9.10002 5.4873 8.99903 5.50684 8.90166C5.52637 8.80429 5.57446 8.71494 5.64498 8.645L8.29498 6L5.64498 3.355C5.56306 3.25935 5.52026 3.13631 5.52512 3.01047C5.52998 2.88463 5.58215 2.76527 5.6712 2.67622C5.76024 2.58717 5.87961 2.535 6.00545 2.53014C6.13129 2.52528 6.25433 2.56809 6.34998 2.65L9.34998 5.65C9.4431 5.74368 9.49538 5.87041 9.49538 6.0025C9.49538 6.13459 9.4431 6.26132 9.34998 6.355L6.34998 9.355C6.25685 9.44737 6.13115 9.49945 5.99998 9.5Z" fill="#2F3A3B"/>
  <path d="M2.99998 9.5C2.90067 9.50058 2.80343 9.47157 2.72067 9.41667C2.63791 9.36177 2.57338 9.28346 2.53529 9.19174C2.49721 9.10002 2.4873 8.99903 2.50684 8.90166C2.52637 8.80429 2.57446 8.71494 2.64498 8.645L5.29498 6L2.64498 3.355C2.55083 3.26085 2.49793 3.13315 2.49793 3C2.49793 2.86685 2.55083 2.73915 2.64498 2.645C2.73913 2.55085 2.86683 2.49795 2.99998 2.49795C3.13313 2.49795 3.26083 2.55085 3.35498 2.645L6.35498 5.645C6.4481 5.73868 6.50037 5.86541 6.50037 5.9975C6.50037 6.12959 6.4481 6.25632 6.35498 6.35L3.35498 9.35C3.30867 9.39724 3.25345 9.43483 3.19251 9.46058C3.13157 9.48633 3.06613 9.49973 2.99998 9.5Z" fill="#2F3A3B"/>
</svg>