<svg xmlns="http://www.w3.org/2000/svg" width="15" height="15" viewBox="0 0 15 15" fill="none">
  <g clip-path="url(#clip0_71_210)">
    <path d="M7.5 0C3.36425 0 0 3.36457 0 7.5C0 11.6354 3.36425 15 7.5 15C11.6358 15 15 11.6354 15 7.5C15 3.36457 11.6358 0 7.5 0ZM10.4816 7.76276L6.10658 10.5753C6.0562 10.6078 5.99748 10.6251 5.93751 10.625C5.88624 10.625 5.83436 10.6122 5.78798 10.5869C5.73864 10.56 5.69746 10.5204 5.66877 10.4721C5.64009 10.4238 5.62496 10.3687 5.625 10.3125V4.6875C5.625 4.57307 5.68726 4.46807 5.78798 4.41313C5.88686 4.35882 6.01075 4.36216 6.10658 4.42474L10.4816 7.23724C10.5707 7.2946 10.625 7.3938 10.625 7.5C10.625 7.6062 10.5707 7.70537 10.4816 7.76276Z" fill="#9B9B9B"/>
  </g>
  <defs>
    <clipPath id="clip0_71_210">
      <rect width="15" height="15" fill="white"/>
    </clipPath>
  </defs>
</svg>