<svg xmlns="http://www.w3.org/2000/svg" width="24" height="24" viewBox="0 0 24 24" fill="none">
  <g clip-path="url(#clip0_121_244)">
    <path d="M7.65591 18.6677C6.2721 18.6677 5.15035 19.7895 5.15035 21.1733C5.15035 22.5571 6.27215 23.6788 7.65591 23.6788C9.03972 23.6788 10.1615 22.557 10.1615 21.1733C10.1615 19.7895 9.03972 18.6677 7.65591 18.6677ZM7.65591 22.5653C6.88714 22.5653 6.26394 21.9421 6.26394 21.1733C6.26394 20.4045 6.88714 19.7813 7.65591 19.7813C8.42468 19.7813 9.04787 20.4045 9.04787 21.1733C9.04793 21.9421 8.42468 22.5653 7.65591 22.5653ZM18.235 18.6677C16.8512 18.6677 15.7295 19.7895 15.7295 21.1733C15.7295 22.5571 16.8513 23.6788 18.235 23.6788C19.6188 23.6788 20.7406 22.557 20.7406 21.1733C20.7406 19.7895 19.6188 18.6677 18.235 18.6677ZM18.235 22.5653C17.4663 22.5653 16.8431 21.9421 16.8431 21.1733C16.8431 20.4045 17.4663 19.7813 18.235 19.7813C19.0038 19.7813 19.627 20.4045 19.627 21.1733C19.6271 21.9421 19.0038 22.5653 18.235 22.5653ZM23.8865 4.05186C23.7706 3.92523 23.6119 3.8459 23.4411 3.82912L5.31741 3.57857L4.8163 2.04736C4.46327 1.02377 3.50474 0.332746 2.42206 0.321289H0.556796C0.249277 0.321289 0 0.570566 0 0.878085C0 1.1856 0.249277 1.43488 0.556796 1.43488H2.42206C2.71765 1.44142 3.00415 1.5383 3.24305 1.71249C3.48195 1.88669 3.66178 2.12985 3.75839 2.40929L7.29404 13.0719L7.01567 13.7122C6.86261 14.1069 6.80552 14.5323 6.84908 14.9534C6.89264 15.3745 7.03561 15.7793 7.26622 16.1343C7.4945 16.4828 7.80352 16.7711 8.16702 16.9746C8.53053 17.1782 8.93779 17.291 9.35422 17.3035H20.1839C20.4914 17.3035 20.7407 17.0543 20.7407 16.7467C20.7407 16.4392 20.4914 16.19 20.1839 16.19H9.35417C9.11919 16.1841 8.88935 16.1199 8.68527 16.0033C8.48119 15.8867 8.30926 15.7212 8.18489 15.5218C8.06161 15.3243 7.985 15.1013 7.96089 14.8697C7.93677 14.6381 7.96578 14.4041 8.0457 14.1855L8.26844 13.6843L19.989 12.4594C21.2764 12.3176 22.3354 11.3812 22.6338 10.1208L23.9701 4.52505C23.9997 4.44589 24.0075 4.36027 23.9928 4.27706C23.9781 4.19385 23.9414 4.11609 23.8865 4.05186ZM21.548 9.87033C21.3673 10.6817 20.6784 11.2801 19.8498 11.3458L8.26844 12.5429L5.67933 4.69216L22.7451 4.94271L21.548 9.87033Z" fill="#494949"/>
  </g>
  <defs>
    <clipPath id="clip0_121_244">
      <rect width="24" height="24" fill="white"/>
    </clipPath>
  </defs>
</svg>