<svg xmlns="http://www.w3.org/2000/svg" width="12" height="12" viewBox="0 0 12 12" fill="none">
  <g clip-path="url(#clip0_121_270)">
    <path d="M7.09936 6.00975L11.772 1.33703C12.0761 1.03309 12.0761 0.541635 11.772 0.237725C11.4681 -0.0662209 10.9766 -0.0662209 10.6727 0.237725L5.99995 4.9104L1.32738 0.237725C1.02328 -0.0662209 0.532015 -0.0662209 0.228069 0.237725C-0.0760229 0.541671 -0.0760229 1.03309 0.228069 1.33703L4.9006 6.00975L0.228105 10.6824C-0.0759865 10.9864 -0.0759865 11.4778 0.228105 11.7817C0.300203 11.854 0.385876 11.9114 0.480204 11.9505C0.574531 11.9896 0.675653 12.0096 0.777759 12.0095C0.976745 12.0095 1.1758 11.9333 1.32741 11.7817L5.99995 7.10906L10.6727 11.7817C10.7448 11.854 10.8305 11.9114 10.9248 11.9505C11.0191 11.9895 11.1202 12.0096 11.2224 12.0095C11.4213 12.0095 11.6204 11.9333 11.772 11.7817C12.0761 11.4778 12.0761 10.9864 11.772 10.6824L7.09936 6.00975Z" fill="#2F3A3B"/>
  </g>
  <defs>
    <clipPath id="clip0_121_270">
      <rect width="12" height="12" fill="white"/>
    </clipPath>
  </defs>
</svg>