<svg xmlns="http://www.w3.org/2000/svg" width="16" height="16" viewBox="0 0 20 20" fill="none">
<g clip-path="url(#clip0_47_90)">
<path d="M11.8323 10.0164L19.62 2.22859C20.1268 1.72202 20.1268 0.902928 19.62 0.396412C19.1134 -0.110165 18.2943 -0.110165 17.7878 0.396412L9.99991 8.18421L2.21229 0.396412C1.70547 -0.110165 0.886691 -0.110165 0.380115 0.396412C-0.126705 0.902989 -0.126705 1.72202 0.380115 2.22859L8.16767 10.0164L0.380175 17.8042C-0.126644 18.3108 -0.126644 19.1299 0.380175 19.6364C0.500338 19.7569 0.643127 19.8525 0.80034 19.9177C0.957552 19.9828 1.12609 20.0162 1.29627 20.0161C1.62791 20.0161 1.95967 19.8891 2.21236 19.6364L9.99991 11.8486L17.7878 19.6364C17.908 19.7569 18.0508 19.8525 18.208 19.9176C18.3652 19.9828 18.5337 20.0162 18.7039 20.0161C19.0356 20.0161 19.3673 19.8891 19.62 19.6364C20.1268 19.1299 20.1268 18.3108 19.62 17.8042L11.8323 10.0164Z" fill="black"/>
</g>
<defs>
<clipPath id="clip0_47_90">
<rect width="20" height="20" fill="black"/>
</clipPath>
</defs>
</svg>