<svg xmlns="http://www.w3.org/2000/svg" width="20" height="21" viewBox="0 0 20 21" fill="none">
  <path d="M18.34 1.125H1.65909C1.08789 1.12535 0.624912 1.58859 0.625 2.16V18.8409C0.625352 19.4121 1.08859 19.8751 1.66 19.875H10.6409V12.624H8.20556V9.78588H10.6409V7.69722C10.6409 5.27508 12.1196 3.95672 14.2802 3.95672C15.3151 3.95672 16.2044 4.03386 16.4636 4.06831V6.59985H14.9737C13.7982 6.59985 13.5705 7.15842 13.5705 7.97827V9.78588H16.3812L16.015 12.624H13.5705V19.875H18.34C18.9115 19.8751 19.3749 19.412 19.375 18.8404V2.15912C19.3748 1.58789 18.9114 1.12491 18.34 1.125Z" fill="#2E58B2"/>
</svg>