<svg xmlns="http://www.w3.org/2000/svg" width="20" height="21" viewBox="0 0 20 21" fill="none">
  <g clip-path="url(#clip0_47_83)">
    <path d="M4.43242 12.5863L3.73625 15.1852L1.19176 15.239C0.431328 13.8286 0 12.2149 0 10.5C0 8.84179 0.403281 7.27804 1.11812 5.90112H1.11867L3.38398 6.31644L4.37633 8.56815C4.16863 9.17366 4.05543 9.82366 4.05543 10.5C4.05551 11.2341 4.18848 11.9374 4.43242 12.5863Z" fill="#F14336"/>
    <path d="M19.8252 8.63184C19.94 9.23676 19.9999 9.86148 19.9999 10.5C19.9999 11.2159 19.9246 11.9143 19.7812 12.5879C19.2944 14.8802 18.0224 16.8818 16.2604 18.2983L16.2598 18.2978L13.4065 18.1522L13.0027 15.6313C14.1719 14.9456 15.0857 13.8725 15.567 12.5879H10.2197V8.63184H19.8252Z" fill="#F14336"/>
    <path d="M16.2595 18.2978L16.2601 18.2984C14.5464 19.6758 12.3694 20.5 9.99965 20.5C6.19141 20.5 2.88043 18.3715 1.19141 15.239L4.43207 12.5863C5.27656 14.8401 7.45074 16.4445 9.99965 16.4445C11.0952 16.4445 12.1216 16.1484 13.0024 15.6313L16.2595 18.2978Z" fill="#F14336"/>
    <path d="M16.383 2.80219L13.1434 5.45437C12.2319 4.88461 11.1544 4.55547 10 4.55547C7.39344 4.55547 5.17859 6.23348 4.37641 8.56812L1.11871 5.90109H1.11816C2.78246 2.6923 6.1352 0.5 10 0.5C12.4264 0.5 14.6511 1.3643 16.383 2.80219Z" fill="#F14336"/>
  </g>
  <defs>
    <clipPath id="clip0_47_83">
      <rect width="20" height="20" fill="white" transform="translate(0 0.5)"/>
    </clipPath>
  </defs>
</svg>