<svg xmlns="http://www.w3.org/2000/svg" width="13" height="14" viewBox="0 0 13 14" fill="none">
  <g clip-path="url(#clip0_102_233)">
    <path d="M12.8863 5.84624L9.98292 8.81999L10.6654 13.0287C10.7255 13.3646 10.361 13.6105 10.0696 13.4512L6.5 11.4742V0.516235C6.65167 0.516235 6.80333 0.586652 6.86833 0.732902L8.66125 4.55165L12.6533 5.15832C12.987 5.2179 13.11 5.61061 12.8863 5.84624Z" fill="#CCCCCC"/>
    <path d="M6.50044 0.516235V11.4742L2.93085 13.4512C2.64431 13.6121 2.27435 13.3684 2.33502 13.0287L3.01752 8.81998L0.114186 5.84624C0.0625799 5.79208 0.0267693 5.72485 0.0106319 5.65181C-0.00550545 5.57877 -0.00135478 5.5027 0.0226346 5.43185C0.0466239 5.361 0.0895378 5.29806 0.14673 5.24984C0.203923 5.20163 0.273214 5.16998 0.347103 5.15832L4.33919 4.55165L6.1321 0.732902C6.1971 0.586652 6.34877 0.516235 6.50044 0.516235Z" fill="#CCCCCC"/>
  </g>
  <defs>
    <clipPath id="clip0_102_233">
      <rect width="13" height="13" fill="white" transform="translate(0 0.5)"/>
    </clipPath>
  </defs>
</svg>