<svg xmlns="http://www.w3.org/2000/svg" width="18" height="18" viewBox="0 0 18 18" fill="none">
  <g clip-path="url(#clip0_95_33)">
    <path d="M17.8425 7.40246L13.8225 11.52L14.7675 17.3475C14.8508 17.8125 14.346 18.153 13.9425 17.9325L9 15.195V0.0224609C9.21 0.0224609 9.42 0.119961 9.51 0.322461L11.9925 5.60996L17.52 6.44996C17.982 6.53246 18.1523 7.07621 17.8425 7.40246Z" fill="#9B9B9B" fill-opacity="0.6"/>
    <path d="M9.00023 0.0224609V15.195L4.05773 17.9325C3.66098 18.1552 3.14873 17.8177 3.23273 17.3475L4.17773 11.52L0.157729 7.40246C0.0862734 7.32748 0.0366896 7.23439 0.0143455 7.13325C-0.00799853 7.03212 -0.00225145 6.9268 0.0309645 6.82869C0.0641806 6.73059 0.1236 6.64344 0.202789 6.57669C0.281979 6.50993 0.377921 6.46611 0.480229 6.44996L6.00773 5.60996L8.49023 0.322461C8.58023 0.119961 8.79023 0.0224609 9.00023 0.0224609Z" fill="#FFC107"/>
  </g>
  <defs>
    <clipPath id="clip0_95_33">
      <rect width="18" height="18" fill="white"/>
    </clipPath>
  </defs>
</svg>